<?xml version="1.0" encoding="UTF-8"?>
<svg id="Layer_1" data-name="Layer 1" xmlns="http://www.w3.org/2000/svg" viewBox="0 0 400 200">
  <defs>
    <style>
      .cls-1 {
        fill: none;
        stroke: #231f20;
        stroke-width: .21px;
      }

      .cls-2 {
        fill: #d2d2d2;
      }

      .cls-2, .cls-3 {
        stroke-width: 0px;
      }

      .cls-3 {
        fill: #fff;
      }
    </style>
  </defs>
  <rect class="cls-3" width="400" height="200"/>
  <g>
    <path class="cls-2" d="m130.4,144.76c2.16,2.11,3.23,5.08,3.23,8.89v23.51h-5.39v-22.97c0-2.65-.69-4.6-2.05-5.86-1.37-1.26-3.33-1.89-5.9-1.89-1.62,0-3.16.4-4.61,1.21-1.46.81-2.65,2.04-3.57,3.71-.92,1.66-1.38,3.71-1.38,6.13v19.67h-5.39v-34.76h5.12v5.19c1.21-1.84,2.75-3.3,4.61-4.38,1.86-1.08,3.96-1.62,6.3-1.62,3.86,0,6.87,1.06,9.03,3.17Z"/>
    <path class="cls-2" d="m169.81,144.76c2.16,2.11,3.23,5.08,3.23,8.89v23.51h-5.39v-22.97c0-2.65-.69-4.6-2.05-5.86-1.37-1.26-3.33-1.89-5.9-1.89-1.62,0-3.16.4-4.61,1.21-1.46.81-2.65,2.04-3.57,3.71-.92,1.66-1.38,3.71-1.38,6.13v19.67h-5.39v-34.76h5.12v5.19c1.21-1.84,2.75-3.3,4.61-4.38,1.86-1.08,3.96-1.62,6.3-1.62,3.86,0,6.87,1.06,9.03,3.17Z"/>
    <path class="cls-2" d="m209.22,144.76c2.16,2.11,3.23,5.08,3.23,8.89v23.51h-5.39v-22.97c0-2.65-.69-4.6-2.05-5.86-1.37-1.26-3.33-1.89-5.9-1.89-1.62,0-3.16.4-4.61,1.21-1.46.81-2.65,2.04-3.57,3.71-.92,1.66-1.38,3.71-1.38,6.13v19.67h-5.39v-34.76h5.12v5.19c1.21-1.84,2.75-3.3,4.61-4.38,1.86-1.08,3.96-1.62,6.3-1.62,3.86,0,6.87,1.06,9.03,3.17Z"/>
    <path class="cls-2" d="m248.63,144.76c2.16,2.11,3.23,5.08,3.23,8.89v23.51h-5.39v-22.97c0-2.65-.69-4.6-2.05-5.86-1.37-1.26-3.33-1.89-5.89-1.89-1.62,0-3.16.4-4.62,1.21-1.46.81-2.65,2.04-3.57,3.71-.92,1.66-1.38,3.71-1.38,6.13v19.67h-5.39v-34.76h5.12v5.19c1.21-1.84,2.75-3.3,4.62-4.38,1.86-1.08,3.96-1.62,6.3-1.62,3.86,0,6.87,1.06,9.03,3.17Z"/>
    <path class="cls-2" d="m288.04,144.76c2.16,2.11,3.23,5.08,3.23,8.89v23.51h-5.39v-22.97c0-2.65-.69-4.6-2.05-5.86-1.37-1.26-3.33-1.89-5.89-1.89-1.62,0-3.16.4-4.62,1.21-1.46.81-2.65,2.04-3.57,3.71-.92,1.66-1.38,3.71-1.38,6.13v19.67h-5.39v-34.76h5.12v5.19c1.21-1.84,2.75-3.3,4.62-4.38,1.86-1.08,3.96-1.62,6.3-1.62,3.86,0,6.87,1.06,9.03,3.17Z"/>
  </g>
  <g>
    <path class="cls-1" d="m129.09,142.89c1.77.9,3.13,2.21,4.08,3.94.94,1.73,1.42,3.81,1.42,6.23v24.12h-6.2v-22.91c0-4.89-2.31-7.34-6.94-7.34-1.75,0-3.37.35-4.85,1.04s-2.69,1.86-3.64,3.5c-.94,1.64-1.41,3.76-1.41,6.37v19.34h-6.2v-34.76h5.79v4.92c1.17-1.84,2.76-3.27,4.78-4.28,2.02-1.01,4.31-1.52,6.87-1.52,2.43,0,4.52.45,6.3,1.35Z"/>
    <path class="cls-1" d="m169.11,142.89c1.77.9,3.13,2.21,4.08,3.94.94,1.73,1.42,3.81,1.42,6.23v24.12h-6.2v-22.91c0-4.89-2.31-7.34-6.94-7.34-1.75,0-3.37.35-4.85,1.04s-2.69,1.86-3.64,3.5c-.94,1.64-1.41,3.76-1.41,6.37v19.34h-6.2v-34.76h5.79v4.92c1.17-1.84,2.76-3.27,4.78-4.28,2.02-1.01,4.31-1.52,6.87-1.52,2.43,0,4.52.45,6.3,1.35Z"/>
    <path class="cls-1" d="m209.13,142.89c1.77.9,3.13,2.21,4.08,3.94.94,1.73,1.42,3.81,1.42,6.23v24.12h-6.2v-22.91c0-4.89-2.31-7.34-6.94-7.34-1.75,0-3.37.35-4.85,1.04s-2.69,1.86-3.64,3.5c-.94,1.64-1.41,3.76-1.41,6.37v19.34h-6.2v-34.76h5.79v4.92c1.17-1.84,2.76-3.27,4.78-4.28,2.02-1.01,4.31-1.52,6.87-1.52,2.42,0,4.52.45,6.3,1.35Z"/>
    <path class="cls-1" d="m249.15,142.89c1.77.9,3.13,2.21,4.08,3.94.94,1.73,1.42,3.81,1.42,6.23v24.12h-6.2v-22.91c0-4.89-2.31-7.34-6.94-7.34-1.75,0-3.37.35-4.85,1.04s-2.7,1.86-3.64,3.5c-.94,1.64-1.42,3.76-1.42,6.37v19.34h-6.2v-34.76h5.79v4.92c1.17-1.84,2.76-3.27,4.78-4.28,2.02-1.01,4.31-1.52,6.87-1.52,2.42,0,4.52.45,6.3,1.35Z"/>
    <path class="cls-1" d="m289.17,142.89c1.77.9,3.13,2.21,4.08,3.94.94,1.73,1.42,3.81,1.42,6.23v24.12h-6.2v-22.91c0-4.89-2.31-7.34-6.94-7.34-1.75,0-3.37.35-4.85,1.04s-2.7,1.86-3.64,3.5c-.94,1.64-1.42,3.76-1.42,6.37v19.34h-6.2v-34.76h5.79v4.92c1.17-1.84,2.76-3.27,4.78-4.28,2.02-1.01,4.31-1.52,6.87-1.52,2.42,0,4.52.45,6.3,1.35Z"/>
  </g>
  <g>
    <path class="cls-2" d="m107.32,114.83c-2.56-1.48-4.56-3.6-6-6.37-1.44-2.76-2.16-5.96-2.16-9.6s.72-6.84,2.16-9.6c1.44-2.76,3.44-4.88,6-6.37s5.46-2.22,8.69-2.22,6.13.74,8.69,2.22,4.56,3.6,6,6.37c1.44,2.76,2.16,5.96,2.16,9.6s-.72,6.84-2.16,9.6c-1.44,2.76-3.44,4.88-6,6.37-2.56,1.48-5.46,2.22-8.69,2.22s-6.13-.74-8.69-2.22Zm14.59-4.21c1.68-1.06,2.99-2.58,3.91-4.58.92-2,1.38-4.39,1.38-7.17s-.46-5.18-1.38-7.17c-.92-2-2.22-3.53-3.91-4.58-1.68-1.05-3.65-1.58-5.9-1.58s-4.21.53-5.9,1.58c-1.68,1.06-2.99,2.58-3.91,4.58-.92,2-1.38,4.39-1.38,7.17s.46,5.18,1.38,7.17c.92,2,2.22,3.53,3.91,4.58,1.68,1.06,3.65,1.58,5.9,1.58s4.21-.53,5.9-1.58Z"/>
    <path class="cls-2" d="m148.75,114.83c-2.56-1.48-4.56-3.6-6-6.37-1.44-2.76-2.16-5.96-2.16-9.6s.72-6.84,2.16-9.6c1.44-2.76,3.44-4.88,6-6.37s5.46-2.22,8.69-2.22,6.13.74,8.69,2.22,4.56,3.6,6,6.37c1.44,2.76,2.16,5.96,2.16,9.6s-.72,6.84-2.16,9.6c-1.44,2.76-3.44,4.88-6,6.37-2.56,1.48-5.46,2.22-8.69,2.22s-6.13-.74-8.69-2.22Zm14.59-4.21c1.68-1.06,2.99-2.58,3.91-4.58.92-2,1.38-4.39,1.38-7.17s-.46-5.18-1.38-7.17c-.92-2-2.22-3.53-3.91-4.58-1.68-1.05-3.65-1.58-5.9-1.58s-4.21.53-5.9,1.58c-1.68,1.06-2.99,2.58-3.91,4.58-.92,2-1.38,4.39-1.38,7.17s.46,5.18,1.38,7.17c.92,2,2.22,3.53,3.91,4.58,1.68,1.06,3.65,1.58,5.9,1.58s4.21-.53,5.9-1.58Z"/>
    <path class="cls-2" d="m190.18,114.83c-2.56-1.48-4.56-3.6-6-6.37-1.44-2.76-2.16-5.96-2.16-9.6s.72-6.84,2.16-9.6c1.44-2.76,3.44-4.88,6-6.37s5.46-2.22,8.69-2.22,6.13.74,8.69,2.22,4.56,3.6,6,6.37c1.44,2.76,2.16,5.96,2.16,9.6s-.72,6.84-2.16,9.6c-1.44,2.76-3.44,4.88-6,6.37-2.56,1.48-5.46,2.22-8.69,2.22s-6.13-.74-8.69-2.22Zm14.59-4.21c1.68-1.06,2.99-2.58,3.91-4.58.92-2,1.38-4.39,1.38-7.17s-.46-5.18-1.38-7.17c-.92-2-2.22-3.53-3.91-4.58-1.68-1.05-3.65-1.58-5.9-1.58s-4.21.53-5.9,1.58c-1.68,1.06-2.99,2.58-3.91,4.58-.92,2-1.38,4.39-1.38,7.17s.46,5.18,1.38,7.17c.92,2,2.22,3.53,3.91,4.58,1.68,1.06,3.65,1.58,5.9,1.58s4.21-.53,5.9-1.58Z"/>
    <path class="cls-2" d="m231.62,114.83c-2.56-1.48-4.56-3.6-6-6.37-1.44-2.76-2.16-5.96-2.16-9.6s.72-6.84,2.16-9.6,3.44-4.88,6-6.37c2.56-1.48,5.46-2.22,8.69-2.22s6.13.74,8.69,2.22,4.56,3.6,6,6.37c1.44,2.76,2.16,5.96,2.16,9.6s-.72,6.84-2.16,9.6c-1.44,2.76-3.44,4.88-6,6.37-2.56,1.48-5.46,2.22-8.69,2.22s-6.13-.74-8.69-2.22Zm14.59-4.21c1.68-1.06,2.99-2.58,3.91-4.58.92-2,1.38-4.39,1.38-7.17s-.46-5.18-1.38-7.17c-.92-2-2.22-3.53-3.91-4.58-1.68-1.05-3.65-1.58-5.89-1.58s-4.21.53-5.9,1.58c-1.68,1.06-2.99,2.58-3.91,4.58-.92,2-1.38,4.39-1.38,7.17s.46,5.18,1.38,7.17c.92,2,2.22,3.53,3.91,4.58s3.65,1.58,5.9,1.58,4.21-.53,5.89-1.58Z"/>
    <path class="cls-2" d="m273.05,114.83c-2.56-1.48-4.56-3.6-6-6.37-1.44-2.76-2.16-5.96-2.16-9.6s.72-6.84,2.16-9.6,3.44-4.88,6-6.37c2.56-1.48,5.46-2.22,8.69-2.22s6.13.74,8.69,2.22,4.56,3.6,6,6.37c1.44,2.76,2.16,5.96,2.16,9.6s-.72,6.84-2.16,9.6c-1.44,2.76-3.44,4.88-6,6.37-2.56,1.48-5.46,2.22-8.69,2.22s-6.13-.74-8.69-2.22Zm14.59-4.21c1.68-1.06,2.99-2.58,3.91-4.58.92-2,1.38-4.39,1.38-7.17s-.46-5.18-1.38-7.17c-.92-2-2.22-3.53-3.91-4.58-1.68-1.05-3.65-1.58-5.89-1.58s-4.21.53-5.9,1.58c-1.68,1.06-2.99,2.58-3.91,4.58-.92,2-1.38,4.39-1.38,7.17s.46,5.18,1.38,7.17c.92,2,2.22,3.53,3.91,4.58s3.65,1.58,5.9,1.58,4.21-.53,5.89-1.58Z"/>
  </g>
  <g>
    <path class="cls-1" d="m107.38,114.77c-2.54-1.53-4.5-3.67-5.9-6.43-1.39-2.76-2.09-5.94-2.09-9.53s.71-6.91,2.12-9.67c1.42-2.76,3.4-4.88,5.96-6.37s5.5-2.22,8.83-2.22,6.1.73,8.59,2.19c2.49,1.46,4.45,3.55,5.86,6.27,1.41,2.72,2.12,5.9,2.12,9.53s-.72,6.79-2.16,9.6c-1.44,2.81-3.43,5-5.96,6.57-2.54,1.57-5.42,2.36-8.66,2.36s-6.19-.76-8.72-2.29Zm14.42-4.58c1.59-1.12,2.81-2.68,3.64-4.68.83-2,1.25-4.32,1.25-6.97s-.42-4.87-1.25-6.8c-.83-1.93-2.04-3.41-3.64-4.45-1.59-1.03-3.49-1.55-5.69-1.55s-4.03.54-5.63,1.62c-1.59,1.08-2.81,2.61-3.64,4.58-.83,1.98-1.25,4.27-1.25,6.87s.43,4.9,1.28,6.87c.85,1.98,2.07,3.5,3.64,4.58,1.57,1.08,3.44,1.62,5.59,1.62s4.1-.56,5.69-1.68Z"/>
    <path class="cls-1" d="m147.6,114.77c-2.54-1.53-4.5-3.67-5.9-6.43-1.39-2.76-2.09-5.94-2.09-9.53s.71-6.91,2.12-9.67c1.42-2.76,3.4-4.88,5.96-6.37s5.5-2.22,8.83-2.22,6.1.73,8.59,2.19c2.49,1.46,4.45,3.55,5.86,6.27,1.41,2.72,2.12,5.9,2.12,9.53s-.72,6.79-2.16,9.6c-1.44,2.81-3.43,5-5.96,6.57-2.54,1.57-5.42,2.36-8.66,2.36s-6.19-.76-8.72-2.29Zm14.42-4.58c1.59-1.12,2.81-2.68,3.64-4.68.83-2,1.25-4.32,1.25-6.97s-.42-4.87-1.25-6.8c-.83-1.93-2.04-3.41-3.64-4.45-1.59-1.03-3.49-1.55-5.69-1.55s-4.03.54-5.63,1.62c-1.59,1.08-2.81,2.61-3.64,4.58-.83,1.98-1.25,4.27-1.25,6.87s.43,4.9,1.28,6.87c.85,1.98,2.07,3.5,3.64,4.58,1.57,1.08,3.44,1.62,5.59,1.62s4.1-.56,5.69-1.68Z"/>
    <path class="cls-1" d="m187.82,114.77c-2.54-1.53-4.5-3.67-5.9-6.43-1.39-2.76-2.09-5.94-2.09-9.53s.71-6.91,2.12-9.67c1.42-2.76,3.4-4.88,5.96-6.37s5.5-2.22,8.83-2.22,6.1.73,8.59,2.19c2.49,1.46,4.45,3.55,5.86,6.27,1.42,2.72,2.12,5.9,2.12,9.53s-.72,6.79-2.16,9.6c-1.44,2.81-3.43,5-5.96,6.57-2.54,1.57-5.42,2.36-8.66,2.36s-6.19-.76-8.72-2.29Zm14.42-4.58c1.59-1.12,2.81-2.68,3.64-4.68.83-2,1.25-4.32,1.25-6.97s-.41-4.87-1.25-6.8c-.83-1.93-2.04-3.41-3.64-4.45-1.6-1.03-3.49-1.55-5.69-1.55s-4.03.54-5.63,1.62c-1.59,1.08-2.81,2.61-3.64,4.58-.83,1.98-1.25,4.27-1.25,6.87s.43,4.9,1.28,6.87c.85,1.98,2.07,3.5,3.64,4.58,1.57,1.08,3.44,1.62,5.59,1.62s4.1-.56,5.69-1.68Z"/>
    <path class="cls-1" d="m228.04,114.77c-2.54-1.53-4.5-3.67-5.89-6.43-1.39-2.76-2.09-5.94-2.09-9.53s.71-6.91,2.12-9.67c1.41-2.76,3.4-4.88,5.96-6.37,2.56-1.48,5.5-2.22,8.83-2.22s6.1.73,8.59,2.19c2.49,1.46,4.45,3.55,5.86,6.27,1.42,2.72,2.12,5.9,2.12,9.53s-.72,6.79-2.16,9.6c-1.44,2.81-3.43,5-5.96,6.57-2.54,1.57-5.42,2.36-8.66,2.36s-6.19-.76-8.72-2.29Zm14.42-4.58c1.59-1.12,2.81-2.68,3.64-4.68.83-2,1.25-4.32,1.25-6.97s-.42-4.87-1.25-6.8c-.83-1.93-2.04-3.41-3.64-4.45-1.59-1.03-3.49-1.55-5.69-1.55s-4.03.54-5.62,1.62c-1.59,1.08-2.81,2.61-3.64,4.58-.83,1.98-1.25,4.27-1.25,6.87s.43,4.9,1.28,6.87c.85,1.98,2.07,3.5,3.64,4.58s3.44,1.62,5.59,1.62,4.1-.56,5.69-1.68Z"/>
    <path class="cls-1" d="m268.26,114.77c-2.54-1.53-4.5-3.67-5.89-6.43-1.39-2.76-2.09-5.94-2.09-9.53s.71-6.91,2.12-9.67c1.41-2.76,3.4-4.88,5.96-6.37,2.56-1.48,5.5-2.22,8.83-2.22s6.1.73,8.59,2.19c2.49,1.46,4.45,3.55,5.86,6.27,1.42,2.72,2.12,5.9,2.12,9.53s-.72,6.79-2.16,9.6c-1.44,2.81-3.43,5-5.96,6.57-2.54,1.57-5.42,2.36-8.66,2.36s-6.19-.76-8.72-2.29Zm14.42-4.58c1.59-1.12,2.81-2.68,3.64-4.68.83-2,1.25-4.32,1.25-6.97s-.42-4.87-1.25-6.8c-.83-1.93-2.04-3.41-3.64-4.45-1.59-1.03-3.49-1.55-5.69-1.55s-4.03.54-5.62,1.62c-1.59,1.08-2.81,2.61-3.64,4.58-.83,1.98-1.25,4.27-1.25,6.87s.43,4.9,1.28,6.87c.85,1.98,2.07,3.5,3.64,4.58s3.44,1.62,5.59,1.62,4.1-.56,5.69-1.68Z"/>
  </g>
  <g>
    <path class="cls-2" d="m129.22,24.6c2.16,2.11,3.23,5.08,3.23,8.89v23.51h-5.39v-22.97c0-2.65-.69-4.6-2.05-5.86-1.37-1.26-3.33-1.89-5.9-1.89-1.62,0-3.16.4-4.61,1.21-1.46.81-2.65,2.04-3.57,3.71-.92,1.66-1.38,3.71-1.38,6.13v19.67h-5.39V22.24h5.12v5.19c1.21-1.84,2.75-3.3,4.61-4.38,1.86-1.08,3.96-1.62,6.3-1.62,3.86,0,6.87,1.06,9.03,3.17Z"/>
    <path class="cls-2" d="m150.04,55.59c-2.56-1.48-4.56-3.6-6-6.37-1.44-2.76-2.16-5.96-2.16-9.6s.72-6.84,2.16-9.6c1.44-2.76,3.44-4.88,6-6.37s5.46-2.22,8.69-2.22,6.13.74,8.69,2.22,4.56,3.6,6,6.37c1.44,2.76,2.16,5.96,2.16,9.6s-.72,6.84-2.16,9.6c-1.44,2.76-3.44,4.88-6,6.37-2.56,1.48-5.46,2.22-8.69,2.22s-6.13-.74-8.69-2.22Zm14.59-4.21c1.68-1.05,2.99-2.58,3.91-4.58.92-2,1.38-4.39,1.38-7.18s-.46-5.18-1.38-7.17c-.92-2-2.22-3.53-3.91-4.58-1.68-1.05-3.65-1.58-5.9-1.58s-4.21.53-5.9,1.58c-1.68,1.06-2.99,2.58-3.91,4.58-.92,2-1.38,4.39-1.38,7.17s.46,5.18,1.38,7.18c.92,2,2.22,3.53,3.91,4.58,1.68,1.06,3.65,1.58,5.9,1.58s4.21-.53,5.9-1.58Z"/>
    <path class="cls-2" d="m210.07,24.6c2.15,2.11,3.23,5.08,3.23,8.89v23.51h-5.39v-22.97c0-2.65-.69-4.6-2.05-5.86-1.37-1.26-3.34-1.89-5.9-1.89-1.62,0-3.16.4-4.61,1.21-1.46.81-2.65,2.04-3.57,3.71-.92,1.66-1.38,3.71-1.38,6.13v19.67h-5.39V22.24h5.12v5.19c1.21-1.84,2.75-3.3,4.61-4.38,1.86-1.08,3.96-1.62,6.3-1.62,3.86,0,6.87,1.06,9.03,3.17Z"/>
    <path class="cls-2" d="m230.88,55.59c-2.56-1.48-4.56-3.6-6-6.37s-2.16-5.96-2.16-9.6.72-6.84,2.16-9.6,3.44-4.88,6-6.37c2.56-1.48,5.46-2.22,8.69-2.22s6.13.74,8.69,2.22,4.56,3.6,6,6.37c1.44,2.76,2.16,5.96,2.16,9.6s-.72,6.84-2.16,9.6c-1.44,2.76-3.44,4.88-6,6.37-2.56,1.48-5.46,2.22-8.69,2.22s-6.13-.74-8.69-2.22Zm14.59-4.21c1.68-1.05,2.99-2.58,3.91-4.58.92-2,1.38-4.39,1.38-7.18s-.46-5.18-1.38-7.17c-.92-2-2.22-3.53-3.91-4.58-1.68-1.05-3.65-1.58-5.89-1.58s-4.21.53-5.9,1.58c-1.68,1.06-2.99,2.58-3.91,4.58-.92,2-1.38,4.39-1.38,7.17s.46,5.18,1.38,7.18c.92,2,2.22,3.53,3.91,4.58,1.68,1.06,3.65,1.58,5.9,1.58s4.21-.53,5.89-1.58Z"/>
    <path class="cls-2" d="m290.91,24.6c2.16,2.11,3.23,5.08,3.23,8.89v23.51h-5.39v-22.97c0-2.65-.69-4.6-2.05-5.86-1.37-1.26-3.33-1.89-5.89-1.89-1.62,0-3.16.4-4.62,1.21-1.46.81-2.65,2.04-3.57,3.71-.92,1.66-1.38,3.71-1.38,6.13v19.67h-5.39V22.24h5.12v5.19c1.21-1.84,2.75-3.3,4.62-4.38,1.86-1.08,3.96-1.62,6.3-1.62,3.86,0,6.87,1.06,9.03,3.17Z"/>
  </g>
  <g>
    <path class="cls-1" d="m127.93,22.66c1.77.9,3.13,2.21,4.08,3.94.94,1.73,1.42,3.81,1.42,6.23v24.12h-6.2v-22.91c0-4.9-2.31-7.34-6.94-7.34-1.75,0-3.37.35-4.85,1.04-1.48.7-2.69,1.86-3.64,3.5-.94,1.64-1.41,3.76-1.41,6.37v19.34h-6.2V22.19h5.79v4.92c1.17-1.84,2.76-3.27,4.78-4.28,2.02-1.01,4.31-1.52,6.87-1.52,2.43,0,4.52.45,6.3,1.35Z"/>
    <path class="cls-1" d="m150.16,55.54c-2.54-1.53-4.5-3.67-5.9-6.43-1.39-2.76-2.09-5.94-2.09-9.53s.71-6.91,2.12-9.67c1.42-2.76,3.4-4.88,5.96-6.37s5.5-2.22,8.83-2.22,6.1.73,8.59,2.19c2.49,1.46,4.45,3.55,5.86,6.27,1.41,2.72,2.12,5.9,2.12,9.53s-.72,6.79-2.16,9.6c-1.44,2.81-3.43,5-5.96,6.57-2.54,1.57-5.42,2.36-8.66,2.36s-6.19-.76-8.72-2.29Zm14.42-4.58c1.59-1.12,2.81-2.68,3.64-4.68.83-2,1.25-4.32,1.25-6.97s-.42-4.87-1.25-6.8c-.83-1.93-2.04-3.41-3.64-4.45-1.59-1.03-3.49-1.55-5.69-1.55s-4.03.54-5.63,1.62c-1.59,1.08-2.81,2.61-3.64,4.58-.83,1.98-1.25,4.27-1.25,6.87s.43,4.9,1.28,6.87c.85,1.98,2.07,3.5,3.64,4.58,1.57,1.08,3.44,1.62,5.59,1.62s4.1-.56,5.69-1.68Z"/>
    <path class="cls-1" d="m208.16,22.66c1.77.9,3.13,2.21,4.08,3.94.94,1.73,1.42,3.81,1.42,6.23v24.12h-6.2v-22.91c0-4.9-2.31-7.34-6.94-7.34-1.75,0-3.37.35-4.85,1.04-1.48.7-2.69,1.86-3.64,3.5-.94,1.64-1.41,3.76-1.41,6.37v19.34h-6.2V22.19h5.79v4.92c1.17-1.84,2.76-3.27,4.78-4.28,2.02-1.01,4.31-1.52,6.87-1.52,2.42,0,4.52.45,6.3,1.35Z"/>
    <path class="cls-1" d="m230.4,55.54c-2.54-1.53-4.5-3.67-5.89-6.43-1.39-2.76-2.09-5.94-2.09-9.53s.71-6.91,2.12-9.67c1.41-2.76,3.4-4.88,5.96-6.37,2.56-1.48,5.5-2.22,8.83-2.22s6.1.73,8.59,2.19c2.49,1.46,4.45,3.55,5.86,6.27,1.42,2.72,2.12,5.9,2.12,9.53s-.72,6.79-2.16,9.6c-1.44,2.81-3.43,5-5.96,6.57-2.54,1.57-5.42,2.36-8.66,2.36s-6.19-.76-8.72-2.29Zm14.42-4.58c1.59-1.12,2.81-2.68,3.64-4.68.83-2,1.25-4.32,1.25-6.97s-.42-4.87-1.25-6.8c-.83-1.93-2.04-3.41-3.64-4.45-1.59-1.03-3.49-1.55-5.69-1.55s-4.03.54-5.62,1.62c-1.59,1.08-2.81,2.61-3.64,4.58-.83,1.98-1.25,4.27-1.25,6.87s.43,4.9,1.28,6.87c.85,1.98,2.07,3.5,3.64,4.58,1.57,1.08,3.44,1.62,5.59,1.62s4.1-.56,5.69-1.68Z"/>
    <path class="cls-1" d="m288.4,22.66c1.77.9,3.13,2.21,4.08,3.94.94,1.73,1.42,3.81,1.42,6.23v24.12h-6.2v-22.91c0-4.9-2.31-7.34-6.94-7.34-1.75,0-3.37.35-4.85,1.04-1.48.7-2.7,1.86-3.64,3.5-.94,1.64-1.42,3.76-1.42,6.37v19.34h-6.2V22.19h5.79v4.92c1.17-1.84,2.76-3.27,4.78-4.28,2.02-1.01,4.31-1.52,6.87-1.52,2.42,0,4.52.45,6.3,1.35Z"/>
  </g>
</svg>