<?xml version="1.0" encoding="UTF-8"?>
<svg id="Layer_1" data-name="Layer 1" xmlns="http://www.w3.org/2000/svg" xmlns:xlink="http://www.w3.org/1999/xlink" viewBox="0 0 200 100">
  <defs>
    <style>
      .cls-1 {
        clip-path: url(#clippath);
      }

      .cls-2 {
        fill: none;
      }

      .cls-3 {
        fill: #231f20;
      }
    </style>
    <clipPath id="clippath">
      <rect class="cls-2" x="8.84" y="2.67" width="185.13" height="95.78"/>
    </clipPath>
  </defs>
  <g class="cls-1">
    <path class="cls-3" d="m87.64,94.88c0-.37-.3-.67-.67-.67s-.68.3-.68.67.3.68.68.68.67-.3.67-.68m-3.65-2.02c0-1.32-.25-2.5-.82-3.85-.44-1.07-.52-1.19-.91-1.58h-.9c.95,1.13,1.63,3.41,1.63,5.47s-.67,4.33-1.63,5.46h.9c.43-.54.55-.76.91-1.63.58-1.41.82-2.53.82-3.86m-2.89-2.65c-.24-.24-.49-.37-.7-.37-.41,0-.74.26-1.42,1.13v-.98h-.9v5.43h.9v-3.24c.52-.94.95-1.43,1.28-1.43.11,0,.2.06.38.22l.44-.76Zm-5.47,1.74h-2.67c.2-.84.73-1.3,1.49-1.3s1.17.46,1.18,1.3m.98.67v-.53c0-1.36-.83-2.25-2.1-2.25-1.55,0-2.57,1.14-2.57,2.87s1.02,2.87,2.53,2.87c.71,0,1.16-.16,1.97-.66l-.36-.71c-.59.41-.94.54-1.42.54-1.11,0-1.78-.8-1.78-2.13h3.72Zm-5.39,2.27l-.37-.6c-.38.29-.56.39-.79.39-.19,0-.29-.08-.31-.24-.01-.1-.04-.55-.04-.6v-3.1h1.44v-.75h-1.44v-1.58h-.9v1.58l-.91.23v.53h.91v3.62c0,.72.42,1.21,1.04,1.21.43,0,.73-.16,1.37-.68m-4.48.53v-4.07c0-1.02-.47-1.51-1.43-1.51-.52,0-1.04.19-1.46.54-.26.22-.36.32-.73.74v-4.45h-.9v8.75h.9v-3.32c.94-1.04,1.52-1.45,2.09-1.45.25,0,.46.11.54.29.07.16.08.28.08.64v3.85h.91Zm-7.49-3.54c0,.77-.53,1.36-1.21,1.36s-1.21-.61-1.21-1.36.54-1.36,1.2-1.36,1.23.6,1.23,1.36Zm.84,4.39c0,.73-.99,1.38-2.1,1.38-.73,0-1.27-.29-1.27-.7,0-.2.11-.42.46-.96l.18-.28h2.03c.48,0,.71.18.71.55m.96-5.53v-.75l-.98.08h-.83c-.53-.18-.76-.23-1.15-.23-1.27,0-2.17.85-2.17,2.07,0,.76.36,1.36,1.04,1.73-.73.6-1.07,1.01-1.07,1.36,0,.31.23.49.78.65-.41.43-.56.64-.72.94-.11.22-.17.41-.17.56,0,.71.98,1.31,2.12,1.31,1.63,0,2.94-1.02,2.94-2.29,0-.88-.46-1.27-1.46-1.27h-2.03c-.34,0-.46-.05-.46-.19,0-.16.2-.4.71-.82.08,0,.14.01.18.01.16.01.26.02.34.02,1.14,0,2.11-.95,2.11-2.05,0-.44-.11-.8-.32-1.13h1.14Zm-6.74-2.65c0-.32-.26-.59-.59-.59s-.59.26-.59.59.26.59.59.59.59-.26.59-.59m-.14,1.9h-.9v5.43h.9v-5.43Zm-2.92-3.31h-.9v8.75h.9v-8.75Zm-5.18,6.46h-6v.68h6v-.68Zm0-1.67h-6v.68h6v-.68Zm-9.3-1.25c-.24-.24-.49-.37-.7-.37-.41,0-.74.26-1.42,1.13v-.98h-.9v5.43h.9v-3.24c.52-.94.95-1.43,1.28-1.43.11,0,.2.06.38.22l.44-.76Zm-5.47,1.74h-2.67c.2-.84.73-1.3,1.49-1.3s1.16.46,1.18,1.3m.98.67v-.53c0-1.36-.83-2.25-2.1-2.25-1.55,0-2.57,1.14-2.57,2.87s1.02,2.87,2.53,2.87c.71,0,1.16-.16,1.97-.66l-.36-.71c-.59.41-.94.54-1.42.54-1.1,0-1.78-.8-1.78-2.13h3.72Zm-5.26-2.64h-.9l-1.36,4.32v.17s-.02-.17-.02-.17l-1.44-4.32h-.95l.36.95-1.22,3.38v.16s-.02-.16-.02-.16l-1.31-4.33h-.98l1.81,5.59h.76l1.28-3.39.07-.3.08.3,1.22,3.39h.73l1.88-5.59Zm-9.44,2.72c0,1.15-.74,2.06-1.69,2.06s-1.7-.91-1.7-2.06.74-2.07,1.7-2.07,1.69.91,1.69,2.07m.98,0c0-1.57-1.21-2.87-2.67-2.87s-2.69,1.29-2.69,2.87,1.21,2.87,2.69,2.87,2.67-1.31,2.67-2.87m-5.88-2.5c-.24-.24-.49-.37-.7-.37-.41,0-.74.26-1.42,1.13v-.98h-.9v5.43h.9v-3.24c.52-.94.95-1.43,1.28-1.43.11,0,.2.06.38.22l.44-.76Z"/>
    <path class="cls-3" d="m124.5,78.23h-2.39v.91h2.39v-.91Zm-2.92-2.02c-.25-.24-.51-.37-.73-.37-.43,0-.78.26-1.48,1.13v-.98h-.94v5.44h.94v-3.24c.54-.94.99-1.43,1.34-1.43.11,0,.21.06.4.22l.46-.75Zm-6.28,3.85c-.82.57-1.1.7-1.53.7-.46,0-.76-.28-.76-.71,0-.22.03-.34.16-.59l2.13-.53v1.13Zm1.42.76c-.29-.05-.44-.14-.46-.29v-3.34c0-.84-.71-1.35-1.86-1.35-1.22,0-2.04.49-2.04,1.21,0,.13.01.19.1.34l.95-.19c-.04-.1-.05-.14-.05-.2,0-.31.28-.47.87-.47.73,0,1.08.23,1.08.67v.99l-1.97.44c-.83.19-1.27.72-1.27,1.51,0,.86.6,1.43,1.52,1.43.4,0,.85-.12,1.2-.31.19-.1.31-.19.6-.43.05.51.32.71,1.1.75l.23-.75Zm-6.36.6v-4.07c0-1.02-.49-1.51-1.49-1.51-.53,0-1.09.19-1.52.54-.28.22-.39.32-.78.74v-1.14h-.94v5.44h.94v-3.32c.99-1.05,1.61-1.45,2.18-1.45.26,0,.49.11.58.29.06.16.09.28.09.64v3.85h.94Zm-9.93-5.21c-.25-.24-.51-.37-.73-.37-.43,0-.78.26-1.48,1.13v-.98h-.94v5.44h.94v-3.24c.54-.94.99-1.43,1.34-1.43.11,0,.21.06.4.22l.46-.75Zm-5.79,2.5c0,1.15-.78,2.06-1.77,2.06s-1.78-.91-1.78-2.06.78-2.06,1.78-2.06,1.77.91,1.77,2.06m1.03,0c0-1.57-1.26-2.87-2.8-2.87s-2.81,1.3-2.81,2.87,1.26,2.87,2.81,2.87,2.8-1.31,2.8-2.87m-10.27-2.5c-.25-.24-.51-.37-.73-.37-.43,0-.78.26-1.48,1.13v-.98h-.94v5.44h.94v-3.24c.54-.94.99-1.43,1.34-1.43.11,0,.21.06.4.22l.46-.75Zm-5.72,1.74h-2.79c.21-.84.77-1.3,1.56-1.3s1.22.46,1.23,1.3m1.03.67v-.53c0-1.36-.86-2.26-2.19-2.26-1.62,0-2.68,1.14-2.68,2.87s1.06,2.87,2.65,2.87c.74,0,1.22-.15,2.06-.66l-.38-.71c-.61.41-.98.54-1.48.54-1.15,0-1.86-.8-1.86-2.12h3.89Zm-7.38,1.14c-.26.31-.4.44-.62.59-.35.24-.76.37-1.1.37-.88,0-1.52-.79-1.52-1.88,0-1.31.78-2.14,1.98-2.14.58,0,.98.16,1.14.46.1.18.11.3.11.72v1.88Zm.95,1.66v-8.75h-.95v3.54c-.36-.26-.75-.37-1.35-.37-1.68,0-2.9,1.26-2.9,3.01,0,1.61.98,2.72,2.37,2.72.72,0,1.38-.3,1.88-.84v.68h.95Zm-6.77-8.75h-.94v8.75h.94v-8.75Zm-3.53,6.03c0,1.15-.78,2.06-1.77,2.06s-1.78-.91-1.78-2.06.78-2.06,1.78-2.06,1.77.91,1.77,2.06m1.03,0c0-1.57-1.27-2.87-2.8-2.87s-2.81,1.3-2.81,2.87,1.26,2.87,2.81,2.87,2.8-1.31,2.8-2.87m-7.71-.22c0,.91-.23,1.41-.85,1.84-.26.18-.58.32-.9.38-.16.04-.33.05-.49.05-.34,0-.56-.05-.83-.17v-3.47c.46-.3.88-.43,1.41-.43,1.05,0,1.67.67,1.67,1.8m1.03-.04c0-1.57-.95-2.61-2.38-2.61-.35,0-.78.05-1.07.12-.23.06-.35.11-.65.25v-3.54h-.94v8.59c.24.11.41.16.58.19.23.05.82.12,1.14.12,2.02,0,3.32-1.22,3.32-3.12m-10.51.67h-6.27v.68h6.27v-.68Zm0-1.67h-6.27v.68h6.27v-.68Zm-10.71-1.25c-.25-.24-.51-.37-.73-.37-.43,0-.78.26-1.48,1.13v-.98h-.94v5.44h.94v-3.24c.54-.94.99-1.43,1.34-1.43.11,0,.21.06.4.22l.46-.75Zm-5.72,1.74h-2.78c.21-.84.77-1.3,1.56-1.3s1.22.46,1.23,1.3m1.03.67v-.53c0-1.36-.86-2.26-2.19-2.26-1.62,0-2.68,1.14-2.68,2.87s1.06,2.87,2.65,2.87c.74,0,1.22-.15,2.06-.66l-.38-.71c-.61.41-.98.54-1.48.54-1.16,0-1.86-.8-1.86-2.12h3.89Zm-7.39,1.14c-.26.31-.4.44-.61.59-.35.24-.77.37-1.1.37-.88,0-1.52-.79-1.52-1.88,0-1.31.78-2.14,1.98-2.14.58,0,.98.16,1.14.46.1.18.11.3.11.72v1.88Zm.95,1.66v-8.75h-.95v3.54c-.36-.26-.75-.37-1.35-.37-1.68,0-2.9,1.26-2.9,3.01,0,1.61.98,2.72,2.37,2.72.72,0,1.38-.3,1.88-.84v.68h.95Zm-6.67-7.33c0-.32-.28-.59-.61-.59s-.61.26-.61.59.28.59.61.59.61-.26.61-.59m-.15,1.9h-.94v5.43h.94v-5.43Zm-2.09,0h-.94l-1.42,4.32v.17s-.02-.17-.02-.17l-1.51-4.32h-.99l.38.95-1.28,3.38v.16s-.03-.16-.03-.16l-1.37-4.33h-1.03l1.89,5.59h.79l1.34-3.39.08-.3.09.3,1.28,3.39h.76l1.97-5.59Z"/>
    <path class="cls-3" d="m120.65,63.95h-2.8c.21-.84.77-1.3,1.56-1.3s1.22.46,1.24,1.3m1.03.67v-.53c0-1.36-.87-2.26-2.21-2.26-1.63,0-2.7,1.14-2.7,2.87s1.07,2.87,2.66,2.87c.74,0,1.22-.16,2.07-.66l-.38-.71c-.62.41-.98.54-1.49.54-1.16,0-1.87-.8-1.87-2.12h3.91Zm-6.48,2.8v-4.07c0-1.02-.49-1.51-1.5-1.51-.53,0-1.1.19-1.53.54-.28.22-.39.32-.79.76-.06-.88-.54-1.3-1.49-1.3-.53,0-1.1.19-1.53.54-.28.22-.39.32-.78.74v-1.14h-.94v5.43h.94v-3.32c1-1.04,1.61-1.45,2.19-1.45.26,0,.49.11.58.29.09.17.09.24.09.64v3.85h.94v-3.32l.26-.26c.85-.84,1.4-1.19,1.93-1.19.26,0,.49.11.58.29.09.17.09.24.09.64v3.85h.94Zm-11.21-2.71c0,1.15-.78,2.06-1.78,2.06s-1.79-.91-1.79-2.06.78-2.06,1.79-2.06,1.78.91,1.78,2.06m1.03,0c0-1.57-1.27-2.87-2.81-2.87s-2.82,1.3-2.82,2.87,1.27,2.87,2.82,2.87,2.81-1.31,2.81-2.87m-6.34,2.29l-.49-.71c-.47.34-.82.46-1.37.46-1.22,0-1.99-.78-1.99-2.03s.77-2.07,1.92-2.07c.52,0,.84.12,1.29.47l.54-.73c-.39-.26-.57-.35-.94-.44-.28-.07-.55-.11-.84-.11-1.75,0-2.99,1.21-2.99,2.93s1.18,2.81,2.92,2.81c.57,0,1.12-.13,1.59-.37.09-.03.21-.11.38-.2m-6.93-3.05h-2.8c.21-.84.77-1.3,1.56-1.3s1.22.46,1.24,1.3m1.03.67v-.53c0-1.36-.87-2.26-2.2-2.26-1.63,0-2.7,1.14-2.7,2.87s1.07,2.87,2.66,2.87c.74,0,1.22-.16,2.07-.66l-.38-.71c-.62.41-.98.54-1.49.54-1.16,0-1.87-.8-1.87-2.12h3.91Zm-7.02-.13c0,.91-.23,1.4-.86,1.84-.26.18-.58.32-.91.38-.16.04-.33.05-.49.05-.34,0-.57-.05-.83-.17v-3.47c.47-.3.88-.43,1.41-.43,1.06,0,1.68.67,1.68,1.8m1.03-.04c0-1.57-.96-2.62-2.39-2.62-.35,0-.78.05-1.07.12-.23.06-.35.11-.65.25v-3.54h-.94v8.59c.24.11.42.16.58.19.23.05.82.12,1.15.12,2.03,0,3.34-1.22,3.34-3.12m-10.35-2.47h-.97l-1.17,3.32-.13.53-.19-.53-1.37-3.32h-1.06l2.12,4.83c-.33.83-.48,1.15-.79,1.68-.33.56-.52.8-1.08,1.4l.76.55c.47-.56.63-.79.86-1.14.31-.48.53-.92.79-1.6l2.24-5.73Zm-6.49,1.97h-2.8c.22-.84.77-1.3,1.56-1.3s1.22.46,1.24,1.3m1.03.67v-.53c0-1.36-.87-2.26-2.2-2.26-1.63,0-2.7,1.14-2.7,2.87s1.07,2.87,2.66,2.87c.74,0,1.22-.16,2.07-.66l-.38-.71c-.62.41-.98.54-1.49.54-1.16,0-1.87-.8-1.87-2.12h3.91Zm-6.46,2.8v-4.07c0-1.02-.49-1.51-1.5-1.51-.54,0-1.1.19-1.54.54-.28.22-.38.32-.77.74v-4.45h-.94v8.75h.94v-3.32c.98-1.04,1.6-1.45,2.19-1.45.26,0,.48.11.57.29.08.16.09.28.09.64v3.85h.96Zm-5.95-.53l-.39-.6c-.4.29-.59.38-.83.38-.2,0-.3-.08-.33-.24-.01-.1-.04-.55-.04-.6v-3.1h1.51v-.76h-1.51v-1.58h-.94v1.58l-.96.23v.53h.96v3.62c0,.72.44,1.21,1.09,1.21.45,0,.77-.16,1.44-.68m-3.86,3.47c-1.01-1.13-1.71-3.37-1.71-5.46s.72-4.34,1.71-5.47h-.94c-.43.4-.49.52-.96,1.58-.59,1.36-.86,2.53-.86,3.85s.28,2.55.86,3.86c.42.95.52,1.12.96,1.63h.94Zm-9.29-4.34c0-.85-.34-1.22-1.55-1.7-1.03-.41-1.19-.49-1.41-.71-.09-.08-.14-.2-.14-.34,0-.41.42-.68,1.06-.68.21,0,.43.04.66.1.29.07.45.14.82.36l.47-.73c-.48-.25-.68-.33-1.11-.41-.24-.05-.49-.06-.73-.06-1.34,0-2.17.59-2.17,1.53,0,.66.38,1.03,1.49,1.48,1.02.4,1.29.55,1.51.86.06.08.11.24.11.37,0,.42-.43.72-1.01.72-.35,0-.88-.08-1.45-.37l-.29-.14-.39.76c.57.27.8.36,1.35.45.29.05.56.07.79.07,1.25,0,1.99-.59,1.99-1.56m-6.38-2.06h-2.8c.21-.84.77-1.3,1.56-1.3s1.22.46,1.24,1.3m1.03.67v-.53c0-1.36-.87-2.26-2.2-2.26-1.63,0-2.7,1.14-2.7,2.87s1.07,2.87,2.66,2.87c.74,0,1.22-.16,2.07-.66l-.38-.71c-.62.41-.98.54-1.49.54-1.16,0-1.87-.8-1.87-2.12h3.91Zm-5.43,2.8l-2.44-2.94,2.43-2.5h-1.24l-2.36,2.48,2.36,2.95h1.25Zm-3.63-8.75h-.94v8.75h.94v-8.75Zm-3.55,6.04c0,1.15-.78,2.06-1.78,2.06s-1.79-.91-1.79-2.06.78-2.06,1.79-2.06,1.78.91,1.78,2.06m1.03,0c0-1.57-1.27-2.87-2.81-2.87s-2.82,1.3-2.82,2.87,1.27,2.87,2.82,2.87,2.81-1.31,2.81-2.87m-6.17-2.5c-.25-.24-.52-.37-.73-.37-.43,0-.78.26-1.49,1.13v-.98h-.94v5.43h.94v-3.24c.54-.94.99-1.43,1.35-1.43.11,0,.21.06.4.22l.47-.75Zm-4.46,4.68l-.39-.6c-.4.29-.59.38-.83.38-.2,0-.3-.08-.33-.24-.01-.1-.04-.55-.04-.6v-3.1h1.51v-.76h-1.51v-1.58h-.94v1.58l-.96.23v.53h.96v3.62c0,.72.44,1.21,1.1,1.21.45,0,.77-.16,1.44-.68m-4.44-.88c0-.85-.34-1.22-1.55-1.7-1.03-.41-1.18-.49-1.41-.71-.09-.08-.14-.2-.14-.34,0-.41.42-.68,1.06-.68.21,0,.43.04.66.1.29.07.45.14.82.36l.46-.73c-.48-.25-.68-.33-1.11-.41-.24-.05-.49-.06-.73-.06-1.34,0-2.17.59-2.17,1.53,0,.66.38,1.03,1.49,1.48,1.02.4,1.29.55,1.51.86.06.08.11.24.11.37,0,.42-.43.72-1.01.72-.35,0-.88-.08-1.45-.37l-.29-.14-.39.76c.57.27.81.36,1.35.45.29.05.56.07.8.07,1.25,0,1.99-.59,1.99-1.56"/>
    <path class="cls-3" d="m121.37,44.67h-.9v8.75h.9v-8.75Zm-3.85,7.39c-.78.56-1.06.7-1.47.7-.44,0-.73-.28-.73-.71,0-.22.02-.34.16-.59l2.04-.53v1.13Zm1.36.76c-.28-.05-.42-.14-.44-.29v-3.34c0-.84-.68-1.35-1.78-1.35-1.17,0-1.96.49-1.96,1.21,0,.13.01.19.1.34l.91-.19c-.04-.1-.05-.14-.05-.2,0-.31.26-.47.83-.47.7,0,1.03.23,1.03.67v.99l-1.89.44c-.79.19-1.21.72-1.21,1.51,0,.86.57,1.43,1.45,1.43.38,0,.82-.12,1.15-.31.18-.09.3-.19.58-.43.05.51.31.71,1.06.76l.22-.76Zm-5.26.18l-.47-.71c-.44.34-.78.46-1.31.46-1.16,0-1.9-.78-1.9-2.03s.73-2.07,1.82-2.07c.49,0,.8.12,1.22.47l.52-.73c-.37-.26-.54-.35-.9-.44-.26-.07-.53-.11-.8-.11-1.67,0-2.84,1.21-2.84,2.93s1.13,2.81,2.78,2.81c.54,0,1.07-.13,1.51-.37.08-.03.2-.11.36-.2m-6.06-6.91c0-.32-.26-.59-.59-.59s-.59.26-.59.59.26.59.59.59.59-.26.59-.59m-.14,1.9h-.9v5.43h.9v-5.43Zm-2.14,4.91l-.37-.6c-.38.29-.56.38-.79.38-.19,0-.29-.08-.31-.24-.01-.1-.04-.55-.04-.6v-3.1h1.44v-.76h-1.44v-1.58h-.9v1.58l-.91.23v.53h.91v3.62c0,.72.42,1.21,1.04,1.21.43,0,.73-.16,1.37-.68m-3.5-4.68c-.24-.24-.49-.37-.7-.37-.41,0-.74.26-1.42,1.13v-.98h-.9v5.44h.9v-3.24c.52-.94.95-1.43,1.28-1.43.11,0,.2.06.38.22l.44-.75Zm-5.47,1.74h-2.67c.2-.84.73-1.3,1.49-1.3s1.17.46,1.18,1.3m.98.67v-.53c0-1.36-.83-2.26-2.1-2.26-1.55,0-2.57,1.14-2.57,2.87s1.02,2.87,2.53,2.87c.71,0,1.17-.16,1.97-.66l-.36-.71c-.59.41-.94.54-1.42.54-1.1,0-1.78-.8-1.78-2.12h3.72Zm-5.36-2.64h-.98l-1.48,4.42v.2s-.04-.22-.04-.22l-1.5-4.4h-.98l2.04,5.59h.83l2.11-5.59Zm-10.55,1.97h-2.67c.2-.84.73-1.3,1.49-1.3s1.17.46,1.18,1.3m.98.67v-.53c0-1.36-.83-2.26-2.1-2.26-1.55,0-2.57,1.14-2.57,2.87s1.02,2.87,2.53,2.87c.71,0,1.16-.16,1.97-.66l-.36-.71c-.59.41-.93.54-1.42.54-1.1,0-1.78-.8-1.78-2.12h3.72Zm-6.16,2.8v-4.07c0-1.02-.47-1.51-1.43-1.51-.52,0-1.04.19-1.46.54-.26.22-.36.32-.73.74v-4.45h-.9v8.75h.9v-3.32c.94-1.04,1.53-1.45,2.09-1.45.25,0,.46.11.54.29.07.16.08.28.08.64v3.85h.91Zm-5.66-.53l-.37-.6c-.38.29-.56.38-.79.38-.19,0-.29-.08-.31-.24-.01-.1-.04-.55-.04-.6v-3.1h1.44v-.76h-1.44v-1.58h-.9v1.58l-.91.23v.53h.91v3.62c0,.72.42,1.21,1.04,1.21.43,0,.73-.16,1.37-.68m-8.94-2.18c0,1.15-.74,2.06-1.69,2.06s-1.71-.91-1.71-2.06.74-2.06,1.71-2.06,1.69.91,1.69,2.06m.98,0c0-1.57-1.21-2.87-2.67-2.87s-2.69,1.3-2.69,2.87,1.21,2.87,2.69,2.87,2.67-1.31,2.67-2.87m-6.6,1.31c0-.85-.32-1.22-1.47-1.7-.99-.41-1.13-.49-1.35-.71-.08-.08-.13-.2-.13-.34,0-.41.4-.68,1.01-.68.2,0,.41.04.62.1.28.07.43.14.78.36l.44-.73c-.46-.25-.65-.33-1.06-.41-.23-.05-.47-.06-.7-.06-1.27,0-2.06.59-2.06,1.53,0,.66.36,1.03,1.42,1.48.97.4,1.22.55,1.44.86.06.08.11.24.11.37,0,.42-.41.72-.96.72-.34,0-.84-.08-1.38-.37l-.28-.14-.37.76c.54.28.77.36,1.28.46.28.05.53.07.76.07,1.19,0,1.9-.59,1.9-1.56m-5.63-7.34h-.9v8.75h.9v-8.75Zm-3.85,7.39c-.78.56-1.06.7-1.46.7-.44,0-.73-.28-.73-.71,0-.22.02-.34.16-.59l2.04-.53v1.13Zm1.36.76c-.28-.05-.42-.14-.44-.29v-3.34c0-.84-.68-1.35-1.78-1.35-1.16,0-1.96.49-1.96,1.21,0,.13.01.19.09.34l.91-.19c-.04-.1-.05-.14-.05-.2,0-.31.26-.47.83-.47.7,0,1.03.23,1.03.67v.99l-1.88.44c-.79.19-1.21.72-1.21,1.51,0,.86.58,1.43,1.45,1.43.38,0,.82-.12,1.15-.31.18-.09.3-.19.58-.43.05.51.31.71,1.06.76l.22-.76Zm-9.76-.8c0-.85-.32-1.22-1.48-1.7-.98-.41-1.13-.49-1.34-.71-.08-.08-.13-.2-.13-.34,0-.41.4-.68,1.01-.68.2,0,.41.04.62.1.28.07.43.14.78.36l.44-.73c-.46-.25-.65-.33-1.06-.41-.23-.05-.47-.06-.7-.06-1.27,0-2.06.59-2.06,1.53,0,.66.36,1.03,1.41,1.48.97.4,1.23.55,1.44.86.06.08.11.24.11.37,0,.42-.41.72-.96.72-.34,0-.84-.08-1.38-.37l-.27-.14-.37.76c.54.28.77.36,1.28.46.28.05.53.07.76.07,1.19,0,1.9-.59,1.9-1.56m-6.07-2.06h-2.67c.2-.84.73-1.3,1.49-1.3s1.16.46,1.18,1.3m.98.67v-.53c0-1.36-.83-2.26-2.1-2.26-1.55,0-2.57,1.14-2.57,2.87s1.02,2.87,2.53,2.87c.71,0,1.16-.16,1.97-.66l-.36-.71c-.59.41-.93.54-1.42.54-1.1,0-1.78-.8-1.78-2.12h3.72Zm-6.17-5.95h-.9v8.75h.9v-8.75Zm-3.85,7.39c-.78.56-1.06.7-1.47.7-.44,0-.73-.28-.73-.71,0-.22.02-.34.16-.59l2.04-.53v1.13Zm1.35.76c-.28-.05-.42-.14-.44-.29v-3.34c0-.84-.68-1.35-1.78-1.35-1.16,0-1.96.49-1.96,1.21,0,.13.01.19.1.34l.91-.19c-.04-.1-.05-.14-.05-.2,0-.31.26-.47.83-.47.7,0,1.03.23,1.03.67v.99l-1.89.44c-.79.19-1.21.72-1.21,1.51,0,.86.57,1.43,1.45,1.43.38,0,.82-.12,1.15-.31.18-.09.3-.19.58-.43.05.51.31.71,1.06.76l.22-.76Zm-5.26.18l-.47-.71c-.44.34-.78.46-1.31.46-1.16,0-1.9-.78-1.9-2.03s.73-2.07,1.82-2.07c.49,0,.8.12,1.22.47l.52-.73c-.37-.26-.54-.35-.9-.44-.26-.07-.53-.11-.8-.11-1.67,0-2.84,1.21-2.84,2.93s1.13,2.81,2.78,2.81c.54,0,1.07-.13,1.51-.37.08-.03.2-.11.36-.2m-5.89-.98c0-.85-.32-1.22-1.48-1.7-.98-.41-1.13-.49-1.34-.71-.08-.08-.13-.2-.13-.34,0-.41.4-.68,1.01-.68.2,0,.41.04.62.1.28.07.43.14.78.36l.44-.73c-.45-.25-.65-.33-1.05-.41-.23-.05-.47-.06-.7-.06-1.27,0-2.06.59-2.06,1.53,0,.66.36,1.03,1.41,1.48.97.4,1.22.55,1.44.86.06.08.11.24.11.37,0,.42-.41.72-.96.72-.34,0-.84-.08-1.38-.37l-.28-.14-.37.76c.54.28.77.36,1.28.46.28.05.53.07.76.07,1.19,0,1.89-.59,1.89-1.56"/>
    <path class="cls-3" d="m122.32,38.89l-.37-.6c-.38.29-.56.38-.78.38-.19,0-.28-.08-.31-.24-.01-.1-.04-.55-.04-.6v-3.1h1.42v-.76h-1.42v-1.58h-.89v1.58l-.9.23v.53h.9v3.62c0,.72.41,1.21,1.03,1.21.43,0,.72-.15,1.35-.68m-4.43.53v-5.44h-.9v3.32c-.62.87-1.47,1.48-2.04,1.48-.45,0-.64-.28-.64-.95v-3.85h-.89v4.08c0,.99.5,1.52,1.43,1.52.81,0,1.5-.42,2.13-1.29v1.13h.9Zm-6.91-2.93c0,.91-.21,1.41-.81,1.84-.25.18-.54.32-.85.38-.15.04-.31.05-.46.05-.32,0-.53-.05-.78-.17v-3.47c.44-.3.83-.43,1.33-.43.99,0,1.57.67,1.57,1.8m.97-.04c0-1.57-.9-2.61-2.25-2.61-.33,0-.74.05-1.01.12-.21.06-.33.11-.61.25v-3.54h-.89v8.59c.22.11.39.16.54.19.21.05.77.12,1.08.12,1.91,0,3.14-1.22,3.14-3.12m-8.98,2.53c0-.5-.23-.77-.67-.77-.27,0-.44.05-.69.22l.51,1.29c-.07.31-.1.41-.2.74-.11.32-.14.42-.26.68h.52l.15-.29c.32-.6.44-.89.54-1.25.06-.23.1-.43.1-.63m-2.79-.97c0-.85-.32-1.22-1.46-1.7-.97-.41-1.11-.49-1.33-.71-.08-.08-.13-.2-.13-.34,0-.41.39-.68,1-.68.2,0,.4.04.61.1.27.07.43.14.77.36l.44-.73c-.45-.25-.64-.33-1.04-.41-.22-.05-.46-.06-.69-.06-1.25,0-2.03.59-2.03,1.53,0,.66.35,1.03,1.39,1.48.96.4,1.21.55,1.42.87.06.08.11.24.11.37,0,.42-.4.72-.95.72-.33,0-.83-.08-1.36-.37l-.27-.14-.37.76c.53.27.76.36,1.26.45.27.05.52.07.75.07,1.17,0,1.87-.59,1.87-1.56m-4.58-3.8c-.24-.24-.49-.37-.69-.37-.4,0-.73.26-1.4,1.13v-.98h-.89v5.44h.89v-3.24c.51-.94.93-1.43,1.27-1.43.11,0,.2.06.38.22l.44-.75Zm-5.4,1.74h-2.63c.2-.84.72-1.3,1.47-1.3s1.15.46,1.16,1.3m.97.67v-.53c0-1.36-.81-2.26-2.07-2.26-1.53,0-2.53,1.14-2.53,2.87s1,2.87,2.5,2.87c.7,0,1.15-.15,1.94-.66l-.35-.71c-.58.41-.92.54-1.4.54-1.09,0-1.75-.8-1.75-2.12h3.67Zm-5.31,2.27l-.37-.6c-.38.29-.56.38-.78.38-.19,0-.28-.08-.31-.24-.01-.1-.04-.55-.04-.6v-3.1h1.42v-.76h-1.42v-1.58h-.89v1.58l-.9.23v.53h.9v3.62c0,.72.41,1.21,1.03,1.21.43,0,.72-.15,1.35-.68m-3.61.11l-.46-.71c-.44.34-.77.46-1.29.46-1.15,0-1.87-.78-1.87-2.03s.72-2.06,1.8-2.06c.49,0,.79.12,1.21.47l.51-.73c-.37-.26-.53-.35-.89-.44-.26-.07-.52-.11-.79-.11-1.64,0-2.8,1.21-2.8,2.93s1.11,2.81,2.74,2.81c.53,0,1.05-.13,1.49-.37.08-.04.2-.11.36-.2m-7.04-.94c-.77.56-1.04.7-1.44.7-.44,0-.72-.28-.72-.71,0-.22.02-.34.15-.59l2.01-.53v1.13Zm1.34.76c-.27-.05-.41-.14-.44-.29v-3.34c0-.84-.67-1.35-1.75-1.35-1.15,0-1.93.49-1.93,1.21,0,.13.01.19.09.34l.9-.19c-.03-.1-.05-.14-.05-.2,0-.31.26-.47.82-.47.69,0,1.02.23,1.02.67v.99l-1.86.44c-.78.19-1.19.72-1.19,1.51,0,.87.57,1.43,1.43,1.43.38,0,.81-.12,1.14-.31.18-.1.3-.19.57-.43.05.51.31.71,1.04.75l.21-.75Zm-5.03-4.61c-.24-.24-.49-.37-.69-.37-.4,0-.73.26-1.4,1.13v-.98h-.89v5.44h.89v-3.24c.51-.94.94-1.43,1.27-1.43.11,0,.2.06.38.22l.44-.75Zm-5.93,3.85c-.77.56-1.04.7-1.44.7-.44,0-.72-.28-.72-.71,0-.22.02-.34.15-.59l2.01-.53v1.13Zm1.34.76c-.27-.05-.41-.14-.44-.29v-3.34c0-.84-.67-1.35-1.75-1.35-1.15,0-1.93.49-1.93,1.21,0,.13.01.19.09.34l.9-.19c-.03-.1-.05-.14-.05-.2,0-.31.26-.47.82-.47.69,0,1.02.23,1.02.67v.99l-1.86.44c-.78.19-1.19.72-1.19,1.51,0,.87.57,1.43,1.43,1.43.38,0,.81-.12,1.14-.31.18-.1.3-.19.57-.43.05.51.31.71,1.04.75l.21-.75Zm-5.99.6v-4.07c0-1.02-.46-1.51-1.41-1.51-.51,0-1.03.19-1.44.54-.26.22-.35.32-.72.74v-4.45h-.89v8.75h.89v-3.32c.92-1.04,1.5-1.45,2.06-1.45.25,0,.45.11.53.29.07.16.08.28.08.64v3.85h.9Zm-5.54-.42l-.46-.71c-.44.34-.77.46-1.29.46-1.15,0-1.87-.78-1.87-2.03s.72-2.06,1.8-2.06c.49,0,.79.12,1.21.47l.51-.73c-.37-.26-.53-.35-.89-.44-.26-.07-.52-.11-.79-.11-1.65,0-2.8,1.21-2.8,2.93s1.11,2.81,2.74,2.81c.53,0,1.05-.13,1.49-.37.08-.04.2-.11.36-.2m-6.11-8.18c-.41-.19-.73-.26-1.18-.26-1.41,0-2.31.98-2.31,2.53v.9l-.9.23v.53h.9v4.68h.89v-4.68h1.27v-.76h-1.27v-.67c0-1.3.45-1.92,1.36-1.92.27,0,.5.05.88.18l.37-.76Zm-6.16,5.89c0,1.15-.73,2.06-1.67,2.06s-1.68-.91-1.68-2.06.73-2.06,1.68-2.06,1.67.91,1.67,2.06m.97,0c0-1.57-1.19-2.87-2.64-2.87s-2.65,1.29-2.65,2.87,1.19,2.87,2.65,2.87,2.64-1.31,2.64-2.87m-9.11,2.71v-4.07c0-1.02-.46-1.51-1.41-1.51-.51,0-1.03.19-1.44.54-.26.22-.36.32-.72.74v-4.45h-.89v8.75h.89v-3.32c.92-1.04,1.5-1.45,2.06-1.45.25,0,.45.11.53.29.07.16.08.28.08.64v3.85h.9Zm-5.58-.53l-.37-.6c-.38.29-.56.38-.78.38-.19,0-.28-.08-.31-.24-.01-.1-.04-.55-.04-.6v-3.1h1.42v-.76h-1.42v-1.58h-.89v1.58l-.9.23v.53h.9v3.62c0,.72.41,1.21,1.03,1.21.43,0,.72-.15,1.35-.68m-5.31-1.13c-.25.31-.38.44-.58.59-.33.24-.72.37-1.04.37-.83,0-1.43-.79-1.43-1.88,0-1.31.73-2.14,1.87-2.14.54,0,.92.16,1.08.46.09.18.11.3.11.72v1.88Zm.9,1.66v-8.75h-.9v3.54c-.34-.26-.71-.37-1.28-.37-1.59,0-2.73,1.26-2.73,3.01,0,1.61.92,2.72,2.24,2.72.68,0,1.3-.3,1.78-.84v.68h.9Zm-6.29-7.33c0-.32-.26-.59-.58-.59s-.58.26-.58.59.26.59.58.59.58-.26.58-.59m-.14,1.9h-.89v5.43h.89v-5.43Zm-1.97,0h-.89l-1.34,4.32v.17s-.02-.17-.02-.17l-1.42-4.32h-.93l.36.95-1.21,3.38v.16s-.02-.16-.02-.16l-1.29-4.33h-.97l1.79,5.59h.75l1.27-3.39.07-.3.08.3,1.21,3.39h.72l1.86-5.59Z"/>
    <path class="cls-3" d="m120.89,21.95h-2.5c.19-.84.69-1.3,1.4-1.3s1.09.46,1.1,1.3m.92.67v-.53c0-1.36-.78-2.26-1.97-2.26-1.45,0-2.41,1.14-2.41,2.87s.96,2.87,2.38,2.87c.67,0,1.09-.16,1.85-.66l-.34-.71c-.55.41-.88.54-1.33.54-1.04,0-1.67-.8-1.67-2.12h3.49Zm-5.78,2.8v-4.07c0-1.02-.44-1.51-1.34-1.51-.49,0-.98.19-1.38.54-.25.22-.34.32-.69.74v-4.45h-.84v8.75h.84v-3.32c.88-1.04,1.43-1.45,1.96-1.45.24,0,.43.11.51.29.07.16.08.28.08.64v3.85h.86Zm-5.32-.53l-.35-.6c-.36.29-.53.38-.74.38-.18,0-.27-.08-.29-.24-.01-.1-.03-.55-.03-.6v-3.1h1.35v-.76h-1.35v-1.58h-.84v1.58l-.85.23v.53h.85v3.62c0,.72.39,1.21.98,1.21.4,0,.69-.16,1.28-.68m-6.18-.88c0-.85-.3-1.22-1.38-1.7-.92-.41-1.06-.49-1.26-.71-.08-.08-.12-.2-.12-.34,0-.41.37-.68.95-.68.19,0,.38.04.59.1.26.07.4.14.73.36l.42-.73c-.43-.25-.61-.34-.99-.41-.22-.05-.44-.06-.65-.06-1.19,0-1.94.59-1.94,1.53,0,.66.34,1.03,1.33,1.48.91.4,1.15.55,1.35.86.06.08.1.24.1.37,0,.42-.38.72-.9.72-.32,0-.79-.08-1.29-.37l-.26-.14-.35.76c.51.28.72.36,1.2.46.26.05.5.07.71.07,1.12,0,1.78-.59,1.78-1.56m-5.7-2.06h-2.5c.19-.84.69-1.3,1.4-1.3s1.09.46,1.1,1.3m.92.67v-.53c0-1.36-.78-2.26-1.97-2.26-1.45,0-2.41,1.14-2.41,2.87s.96,2.87,2.38,2.87c.67,0,1.09-.16,1.85-.66l-.34-.71c-.55.41-.88.54-1.33.54-1.04,0-1.67-.8-1.67-2.12h3.49Zm-5.79-5.95h-.84v8.75h.84v-8.75Zm-3.61,7.39c-.73.56-.99.7-1.38.7-.42,0-.69-.28-.69-.71,0-.22.02-.34.15-.59l1.92-.53v1.13Zm1.27.76c-.26-.05-.39-.14-.42-.29v-3.34c0-.84-.64-1.36-1.67-1.36-1.09,0-1.83.49-1.83,1.21,0,.13.01.19.09.34l.85-.19c-.03-.1-.04-.14-.04-.2,0-.31.25-.47.78-.47.65,0,.97.23.97.67v.98l-1.77.44c-.74.19-1.14.72-1.14,1.51,0,.86.54,1.43,1.36,1.43.36,0,.77-.12,1.08-.31.17-.1.28-.19.54-.43.05.51.29.71.99.76l.2-.76Zm-4.93.18l-.44-.71c-.42.34-.73.46-1.23.46-1.09,0-1.78-.78-1.78-2.03s.69-2.07,1.71-2.07c.46,0,.76.12,1.15.47l.48-.73c-.35-.26-.51-.35-.84-.44-.25-.07-.5-.11-.75-.11-1.57,0-2.67,1.21-2.67,2.93s1.06,2.81,2.61,2.81c.51,0,1-.13,1.42-.37.08-.04.19-.11.34-.2m-5.53-.98c0-.85-.3-1.22-1.38-1.7-.92-.41-1.06-.49-1.26-.71-.08-.08-.12-.2-.12-.34,0-.41.37-.68.95-.68.19,0,.38.04.59.1.26.07.4.14.73.36l.42-.73c-.43-.25-.61-.34-.99-.41-.21-.05-.44-.06-.65-.06-1.19,0-1.94.59-1.94,1.53,0,.66.34,1.03,1.33,1.48.91.4,1.15.55,1.35.86.06.08.1.24.1.37,0,.42-.38.72-.9.72-.32,0-.79-.08-1.29-.37l-.26-.14-.35.76c.51.28.72.36,1.2.46.26.05.5.07.71.07,1.11,0,1.78-.59,1.78-1.56m-6.67-4.03h-.87l-1.05,3.32-.11.53-.17-.53-1.23-3.32h-.94l1.89,4.84c-.29.83-.43,1.15-.71,1.68-.29.56-.46.8-.97,1.4l.67.55c.42-.56.56-.79.77-1.14.28-.48.47-.92.71-1.6l2-5.74Zm-5.38-3.31h-.84v8.75h.84v-8.75Zm-2.69,8.75v-4.07c0-1.02-.44-1.51-1.34-1.51-.47,0-.98.19-1.36.54-.25.22-.35.32-.7.74v-1.14h-.84v5.43h.84v-3.32c.89-1.04,1.44-1.45,1.96-1.45.24,0,.44.11.52.29.06.16.08.28.08.64v3.85h.84Zm-6.62-2.71c0,1.15-.7,2.07-1.59,2.07s-1.6-.91-1.6-2.07.7-2.06,1.6-2.06,1.59.91,1.59,2.06m.92,0c0-1.57-1.13-2.87-2.51-2.87s-2.52,1.29-2.52,2.87,1.14,2.87,2.52,2.87,2.51-1.31,2.51-2.87m-7.92,2.18l-.35-.6c-.36.29-.53.38-.74.38-.18,0-.27-.08-.29-.24-.01-.1-.03-.55-.03-.6v-3.1h1.35v-.76h-1.35v-1.58h-.84v1.58l-.85.23v.53h.85v3.62c0,.72.39,1.21.98,1.21.4,0,.69-.16,1.28-.68m-4.69-2.18c0,1.15-.7,2.07-1.59,2.07s-1.6-.91-1.6-2.07.7-2.06,1.6-2.06,1.59.91,1.59,2.06m.92,0c0-1.57-1.14-2.87-2.51-2.87s-2.52,1.29-2.52,2.87,1.14,2.87,2.52,2.87,2.51-1.31,2.51-2.87m-6.44,2.71v-4.07c0-1.02-.44-1.51-1.34-1.51-.47,0-.98.19-1.36.54-.25.22-.35.32-.7.74v-1.14h-.84v5.43h.84v-3.32c.89-1.04,1.44-1.45,1.96-1.45.24,0,.44.11.52.29.06.16.08.28.08.64v3.85h.84Zm-8.28-.43c0-.5-.21-.77-.64-.77-.26,0-.42.05-.65.22l.48,1.3c-.07.31-.09.41-.19.74-.1.32-.14.42-.25.68h.5l.15-.29c.3-.6.42-.89.52-1.25.06-.23.09-.43.09-.64m-3.75-1.22c-.24.31-.36.44-.55.59-.32.24-.69.37-.99.37-.79,0-1.36-.79-1.36-1.88,0-1.31.7-2.14,1.78-2.14.52,0,.88.16,1.02.46.09.18.1.3.1.72v1.88Zm.86,1.66v-8.75h-.86v3.54c-.33-.26-.68-.37-1.22-.37-1.51,0-2.6,1.26-2.6,3.01,0,1.61.88,2.72,2.13,2.72.64,0,1.24-.3,1.69-.84v.68h.86Zm-6.08,0v-4.07c0-1.02-.44-1.51-1.34-1.51-.47,0-.98.19-1.36.54-.25.22-.35.32-.7.74v-1.14h-.84v5.43h.84v-3.32c.89-1.04,1.44-1.45,1.96-1.45.24,0,.44.11.52.29.06.16.08.28.08.64v3.85h.84Zm-7.06-1.35c-.73.56-.99.7-1.37.7-.42,0-.69-.28-.69-.71,0-.22.02-.34.15-.59l1.92-.53v1.13Zm1.27.76c-.26-.05-.39-.14-.42-.29v-3.34c0-.84-.64-1.36-1.67-1.36-1.09,0-1.83.49-1.83,1.21,0,.13.01.19.09.34l.86-.19c-.03-.1-.05-.14-.05-.2,0-.31.25-.47.78-.47.65,0,.97.23.97.67v.98l-1.77.44c-.74.19-1.14.72-1.14,1.51,0,.86.54,1.43,1.36,1.43.36,0,.77-.12,1.08-.31.17-.1.28-.19.54-.43.05.51.29.71.99.76l.2-.76Zm-5.7.6v-4.07c0-1.02-.44-1.51-1.34-1.51-.48,0-.98.19-1.37.54-.25.22-.34.32-.69.74v-4.45h-.84v8.75h.84v-3.32c.88-1.04,1.43-1.45,1.96-1.45.24,0,.43.11.51.29.07.16.08.28.08.64v3.85h.85Z"/>
    <path class="cls-3" d="m123.08,6.21c-.24-.24-.49-.37-.7-.37-.41,0-.74.26-1.42,1.13v-.98h-.9v5.43h.9v-3.24c.52-.94.95-1.43,1.28-1.43.11,0,.2.06.38.22l.44-.75Zm-5.47,1.74h-2.67c.2-.84.73-1.3,1.49-1.3s1.16.46,1.18,1.3m.98.67v-.53c0-1.36-.83-2.26-2.1-2.26-1.55,0-2.57,1.14-2.57,2.87s1.02,2.87,2.53,2.87c.71,0,1.16-.16,1.97-.66l-.36-.71c-.59.41-.94.54-1.42.54-1.1,0-1.78-.81-1.78-2.13h3.72Zm-6.16,2.8v-4.07c0-1.02-.47-1.51-1.43-1.51-.52,0-1.04.19-1.46.54-.26.22-.36.32-.73.74V2.67h-.9v8.75h.9v-3.32c.94-1.04,1.53-1.45,2.09-1.45.25,0,.46.11.54.29.07.16.08.28.08.64v3.85h.91Zm-5.66-.53l-.37-.6c-.38.29-.56.38-.79.38-.19,0-.29-.08-.31-.24-.01-.1-.04-.55-.04-.6v-3.1h1.44v-.75h-1.44v-1.58h-.9v1.58l-.91.23v.53h.91v3.62c0,.72.42,1.21,1.04,1.21.43,0,.73-.16,1.37-.68m-5-2.18c0,1.15-.75,2.07-1.69,2.07s-1.71-.91-1.71-2.07.74-2.06,1.71-2.06,1.69.91,1.69,2.06m.98,0c0-1.57-1.21-2.87-2.68-2.87s-2.69,1.29-2.69,2.87,1.21,2.87,2.69,2.87,2.68-1.31,2.68-2.87m-11.11-.76h-2.67c.2-.84.73-1.3,1.49-1.3s1.17.46,1.18,1.3m.98.67v-.53c0-1.36-.83-2.26-2.1-2.26-1.55,0-2.57,1.14-2.57,2.87s1.02,2.87,2.53,2.87c.71,0,1.17-.16,1.97-.66l-.36-.71c-.59.41-.94.54-1.42.54-1.1,0-1.78-.81-1.78-2.13h3.72Zm-6.16,2.8v-4.07c0-1.02-.47-1.51-1.43-1.51-.52,0-1.05.19-1.47.54-.26.22-.36.32-.73.74V2.67h-.9v8.75h.9v-3.32c.94-1.04,1.53-1.45,2.09-1.45.25,0,.46.11.54.29.07.16.08.28.08.64v3.85h.91Zm-5.66-.53l-.37-.6c-.38.29-.56.38-.79.38-.19,0-.29-.08-.31-.24-.01-.1-.04-.55-.04-.6v-3.1h1.44v-.75h-1.44v-1.58h-.9v1.58l-.91.23v.53h.91v3.62c0,.72.42,1.21,1.04,1.21.43,0,.73-.16,1.37-.68m-8.29.53v-4.07c0-1.02-.47-1.51-1.43-1.51-.5,0-1.05.19-1.45.54-.26.22-.37.32-.74.74v-1.14h-.9v5.43h.9v-3.32c.95-1.04,1.54-1.45,2.09-1.45.25,0,.47.11.55.29.06.16.08.28.08.64v3.85h.9Zm-7.06-2.71c0,1.15-.74,2.07-1.69,2.07s-1.71-.91-1.71-2.07.74-2.06,1.71-2.06,1.69.91,1.69,2.06m.98,0c0-1.57-1.21-2.87-2.67-2.87s-2.69,1.29-2.69,2.87,1.21,2.87,2.69,2.87,2.67-1.31,2.67-2.87m-10.59,2.28c0-.5-.23-.77-.68-.77-.28,0-.44.05-.7.22l.52,1.3c-.07.31-.1.41-.2.74-.11.32-.14.42-.26.68h.53l.16-.29c.32-.6.44-.89.55-1.25.06-.23.1-.43.1-.64m-3.1.43v-4.07c0-1.02-.47-1.51-1.43-1.51-.5,0-1.04.19-1.45.54-.26.22-.37.32-.74.74v-1.14h-.9v5.43h.9v-3.32c.95-1.04,1.54-1.45,2.09-1.45.25,0,.47.11.55.29.06.16.08.28.08.64v3.85h.9Zm-7.58-3.54c0,.77-.53,1.36-1.21,1.36s-1.21-.61-1.21-1.36.54-1.36,1.2-1.36,1.23.6,1.23,1.36Zm.84,4.39c0,.73-.99,1.38-2.1,1.38-.73,0-1.27-.29-1.27-.7,0-.2.11-.42.46-.96l.18-.28h2.03c.48,0,.71.18.71.55m.96-5.53v-.75l-.98.08h-.83c-.53-.18-.76-.23-1.15-.23-1.27,0-2.17.85-2.17,2.08,0,.76.36,1.36,1.04,1.73-.73.6-1.07,1.01-1.07,1.36,0,.31.23.49.78.65-.41.43-.56.64-.72.94-.11.22-.17.41-.17.56,0,.71.98,1.31,2.12,1.31,1.63,0,2.94-1.02,2.94-2.29,0-.88-.46-1.27-1.46-1.27h-2.03c-.34,0-.46-.05-.46-.19,0-.16.2-.4.71-.82.08,0,.14.01.18.01.16.01.26.02.34.02,1.14,0,2.11-.95,2.11-2.05,0-.44-.11-.81-.32-1.13h1.14Zm-6.74-2.65c0-.32-.26-.59-.59-.59s-.59.26-.59.59.26.59.59.59.59-.26.59-.59m-.14,1.9h-.9v5.43h.9v-5.43Zm-2.65,4.03c0-.85-.32-1.22-1.48-1.7-.98-.41-1.13-.49-1.34-.71-.08-.08-.13-.2-.13-.34,0-.41.4-.68,1.01-.68.2,0,.41.04.62.1.28.07.43.14.78.36l.44-.73c-.45-.25-.65-.34-1.05-.41-.23-.05-.47-.06-.7-.06-1.27,0-2.06.59-2.06,1.53,0,.66.36,1.03,1.41,1.48.97.4,1.23.55,1.44.86.06.08.11.24.11.37,0,.42-.41.72-.96.72-.34,0-.84-.08-1.38-.37l-.28-.14-.37.76c.54.27.77.36,1.28.45.28.05.53.07.76.07,1.19,0,1.9-.59,1.9-1.56m-6.07-2.06h-2.67c.2-.84.73-1.3,1.49-1.3s1.16.46,1.18,1.3m.98.67v-.53c0-1.36-.83-2.26-2.1-2.26-1.55,0-2.57,1.14-2.57,2.87s1.02,2.87,2.53,2.87c.71,0,1.16-.16,1.97-.66l-.36-.71c-.59.41-.93.54-1.42.54-1.1,0-1.78-.81-1.78-2.13h3.72Zm-6.81-1.21c0,.86-.4,1.85-.97,2.46-.5.52-1.09.72-2.14.72h-1.5v-6.26h1.5c1.79,0,3.11,1.32,3.11,3.08m1.03.01c0-2.28-1.67-3.92-3.98-3.92h-2.64v7.92h2.63c1.38,0,2.21-.32,2.93-1.15.68-.78,1.07-1.81,1.07-2.84m-8.92,3.99v-4.07c0-1.02-.47-1.51-1.43-1.51-.51,0-1.05.19-1.45.54-.26.22-.37.32-.74.74v-1.14h-.9v5.43h.9v-3.32c.95-1.04,1.54-1.45,2.09-1.45.25,0,.47.11.55.29.06.16.08.28.08.64v3.85h.9Zm-6.86-7.92h-.98v7.92h.98V3.5Z"/>
    <path class="cls-3" d="m179.57,62.8c0-.66-.29-.96-.91-.96-.5,0-1.06.28-1.63.85-.68.68-.84,1.02-1.16,1.4l.42-2.18-.92.16-.85,5.35h.9l.17-1.06c.05-.28.17-.73.25-.95.06-.17.16-.35.28-.53.29-.46.71-.98,1.15-1.45.49-.54.9-.83,1.18-.83.16,0,.24.12.24.37,0,.07-.01.13-.06.44l-.64,4h.91l.65-4.15c.02-.14.04-.32.04-.47m-7.02,1.31c0,1.49-.88,2.74-1.93,2.74-.58,0-.96-.61-.96-1.52,0-.55.17-1.18.48-1.7.37-.64.89-1.01,1.39-1.01.66,0,1.02.53,1.02,1.5m.92,0c0-1.38-.7-2.23-1.82-2.23-1.6,0-2.9,1.58-2.9,3.52,0,1.32.72,2.18,1.81,2.18,1.59,0,2.92-1.58,2.92-3.47m-5.23-4.39c0-.4-.18-.71-.4-.71-.3,0-.56.28-.65.67-.01.05-.01.1-.01.14,0,.4.18.71.4.71.3,0,.56-.28.65-.67.01-.05.01-.1.01-.14m-.48,2.2l-.92.16-.85,5.35h.9l.88-5.51Zm-2.44.42c-.29-.18-.41-.24-.68-.31-.29-.08-.55-.12-.8-.12-1.06,0-1.76.61-1.76,1.53,0,.49.19.82.84,1.32l.7.55c.15.13.25.26.32.4.05.1.07.22.07.35,0,.44-.32.7-.9.7-.38,0-.67-.1-1.15-.38l-.42.76c.76.32,1.04.4,1.54.4,1.18,0,1.88-.61,1.88-1.63,0-.58-.2-.88-1.1-1.56-.7-.53-.88-.74-.88-1.03,0-.36.37-.65.84-.65.12,0,.29.02.43.06.29.07.41.13.72.34l.36-.71Zm-4.49.47c0-.66-.29-.96-.91-.96-.5,0-1.06.28-1.63.85-.68.68-.84,1.02-1.16,1.4l.42-2.18-.92.16-.85,5.35h.9l.17-1.06c.05-.28.17-.73.25-.95.06-.17.16-.35.28-.53.29-.46.71-.98,1.15-1.45.49-.54.9-.83,1.18-.83.16,0,.24.12.24.37,0,.07-.01.13-.06.44l-.64,4h.91l.65-4.15c.02-.14.04-.32.04-.47m-7.12-.13l-.1.6c-.2,1.28-.5,1.85-1.48,2.76-.52.48-.86.7-1.08.7-.23,0-.35-.25-.35-.73,0-1.24.52-2.62,1.2-3.17.29-.23.48-.29.94-.29.26,0,.41.01.86.13Zm1-.53c-.67-.18-.89-.23-1.19-.29-.23-.05-.44-.06-.65-.06-1.78,0-3.14,1.81-3.14,4.16,0,1.03.34,1.61.9,1.61.83,0,1.8-.68,2.69-1.88l-.35,1.74h.9l.84-5.28Zm-6.71,1.34c0,1.88-.92,3.42-2.06,3.42-.38,0-.68-.1-1-.31l.16-.98c.05-.32.22-.71.44-1.03.28-.37.79-.96,1.09-1.24.44-.41.84-.66,1.01-.66.24,0,.36.28.36.8h0Zm.97-.06c0-.95-.42-1.63-1.02-1.63-.37,0-1.03.34-1.54.78-.32.28-.61.59-.86.94-.06.07-.14.2-.25.36l.38-1.96-.94.16-1.3,8.22h.9l.47-2.94c.35.17.7.24,1.09.24.95,0,1.75-.5,2.3-1.46.49-.84.76-1.81.76-2.7h0Zm-5.03-1.44h-1.12l-1.6,1.99-.83-2.06-.94.16,1.14,2.6-2.26,2.75h1.07l1.56-1.92.82,1.92h1.02l-1.21-2.64,2.34-2.79Zm-6.4.99s-.01.12-.05.22l-2.27,1.43c.25-1.21,1.02-2.14,1.78-2.14.28,0,.54.24.54.49m.84-.16c0-.62-.49-1.02-1.27-1.02-1.58,0-2.95,1.82-2.95,3.92,0,1.19.48,1.79,1.43,1.79.83,0,1.76-.6,2.78-1.75l-.51-.53c-.73.95-1.54,1.52-2.12,1.52-.42,0-.65-.36-.65-1.02,0-.13,0-.17.02-.28l2.53-1.56c.53-.32.74-.64.74-1.08"/>
    <path class="cls-3" d="m190.97,20.8c0-.66-.29-.96-.91-.96-.5,0-1.06.28-1.63.85-.68.68-.84,1.02-1.16,1.4l.42-2.18-.92.16-.85,5.35h.9l.17-1.06c.05-.28.17-.73.25-.95.06-.17.16-.35.28-.53.29-.46.71-.98,1.15-1.45.49-.54.9-.83,1.18-.83.16,0,.24.12.24.37,0,.07-.01.13-.06.44l-.64,4h.91l.65-4.15c.02-.14.04-.32.04-.47m-7.02,1.31c0,1.49-.88,2.74-1.93,2.74-.58,0-.96-.61-.96-1.52,0-.55.17-1.18.48-1.71.37-.64.89-1.01,1.39-1.01.66,0,1.02.53,1.02,1.5m.92,0c0-1.38-.7-2.23-1.82-2.23-1.6,0-2.9,1.58-2.9,3.52,0,1.32.72,2.18,1.81,2.18,1.59,0,2.92-1.58,2.92-3.47m-5.23-4.39c0-.4-.18-.71-.4-.71-.3,0-.56.28-.65.67-.01.05-.01.1-.01.14,0,.4.18.71.4.71.3,0,.56-.28.65-.67.01-.05.01-.1.01-.14m-.48,2.2l-.92.16-.85,5.35h.9l.88-5.51Zm-2.44.42c-.29-.18-.41-.24-.68-.31-.29-.08-.55-.12-.8-.12-1.06,0-1.76.61-1.76,1.53,0,.49.19.82.84,1.32l.7.55c.15.13.25.26.32.4.05.1.07.22.07.35,0,.44-.32.7-.9.7-.38,0-.67-.1-1.15-.38l-.42.75c.76.32,1.04.4,1.54.4,1.18,0,1.88-.61,1.88-1.63,0-.58-.2-.88-1.1-1.56-.7-.53-.88-.74-.88-1.03,0-.36.37-.65.84-.65.12,0,.29.02.43.06.29.07.41.13.72.34l.36-.71Zm-4.04,0c-.29-.18-.41-.24-.68-.31-.29-.08-.55-.12-.8-.12-1.06,0-1.76.61-1.76,1.53,0,.49.19.82.84,1.32l.7.55c.14.13.25.26.32.4.05.1.07.22.07.35,0,.44-.32.7-.9.7-.38,0-.67-.1-1.15-.38l-.42.75c.76.32,1.04.4,1.54.4,1.18,0,1.88-.61,1.88-1.63,0-.58-.2-.88-1.1-1.56-.7-.53-.88-.74-.88-1.03,0-.36.37-.65.84-.65.12,0,.29.02.43.06.29.07.41.13.72.34l.36-.71Zm-5.17.65s-.01.12-.05.22l-2.27,1.43c.25-1.21,1.02-2.14,1.78-2.14.28,0,.54.24.54.49m.84-.16c0-.62-.49-1.02-1.27-1.02-1.59,0-2.95,1.82-2.95,3.92,0,1.19.48,1.79,1.43,1.79.83,0,1.76-.6,2.78-1.75l-.51-.53c-.73.95-1.54,1.53-2.12,1.53-.42,0-.65-.36-.65-1.02,0-.13,0-.17.02-.28l2.53-1.56c.53-.32.74-.64.74-1.08m-4.01-.75c-.22-.13-.37-.17-.62-.17-.61,0-1.13.45-1.79,1.6l.32-1.58-.92.16-.85,5.35h.9l.22-1.36c.06-.41.24-1.12.36-1.44.2-.56.52-1.06.94-1.45.26-.26.49-.37.74-.37.14,0,.23.02.35.1l.36-.83Zm-5.7,1.42c0,1.88-.92,3.42-2.06,3.42-.38,0-.68-.1-1-.31l.16-.98c.05-.32.22-.71.44-1.03.28-.37.79-.96,1.09-1.24.44-.41.84-.66,1.01-.66.24,0,.36.28.36.8h0Zm.97-.06c0-.95-.42-1.63-1.02-1.63-.37,0-1.03.34-1.54.78-.32.28-.61.59-.86.94-.06.07-.14.2-.25.36l.38-1.95-.94.16-1.3,8.22h.9l.47-2.94c.35.17.7.24,1.09.24.95,0,1.75-.5,2.3-1.46.49-.84.76-1.81.76-2.7h0Zm-6.34-.7c0-.6-.31-.89-.94-.89-.8,0-1.9.88-2.8,2.26.16-.42.25-.95.25-1.33,0-.62-.3-.92-.91-.92-.52,0-1.06.28-1.64.85-.3.29-.52.54-.88,1.03-.07.08-.17.2-.29.37l.42-2.18-.92.16-.85,5.35h.9l.17-1.06c.05-.28.17-.73.25-.95.06-.17.16-.35.28-.53.29-.44.71-.97,1.15-1.45.49-.54.9-.83,1.16-.83.17,0,.25.12.25.37,0,.07-.01.13-.7,4.44h.91l.17-1.06c.01-.08.04-.22.1-.42.07-.25.12-.43.15-.52.06-.16.16-.34.28-.53.3-.48.71-1,1.15-1.46.5-.55.9-.83,1.18-.83.14,0,.23.11.23.29,0,.1-.04.35-.06.53l-.64,4h.91l.66-4.15c.02-.18.05-.4.05-.54m-10.51,1.38c0,1.49-.88,2.74-1.93,2.74-.58,0-.96-.61-.96-1.52,0-.55.17-1.18.48-1.71.37-.64.89-1.01,1.39-1.01.66,0,1.02.53,1.02,1.5m.92,0c0-1.38-.69-2.23-1.82-2.23-1.6,0-2.9,1.58-2.9,3.52,0,1.32.72,2.18,1.81,2.18,1.59,0,2.92-1.58,2.92-3.47m-5.14-1.75c-.44-.37-.86-.53-1.42-.53-1.61,0-2.99,1.83-2.99,4.01,0,1.04.46,1.68,1.2,1.68.9,0,1.87-.62,2.87-1.83l-.53-.44c-.9,1-1.57,1.49-2.05,1.49-.36,0-.5-.29-.5-1.01,0-1.74.86-3.17,1.92-3.17.37,0,.61.1.98.42l.52-.61Z"/>
  </g>
</svg>