<?xml version="1.0" encoding="UTF-8"?>
<svg id="Layer_1" data-name="Layer 1" xmlns="http://www.w3.org/2000/svg" viewBox="0 0 600 75">
  <defs>
    <style>
      .cls-1 {
        fill: #fff;
      }

      .cls-2 {
        fill: #010101;
      }
    </style>
  </defs>
  <rect class="cls-1" width="600" height="75"/>
  <g>
    <g>
      <g>
        <path class="cls-2" d="m190.52,57.3c0,1.95-.66,3.48-1.99,4.59-1.33,1.1-3.2,1.66-5.59,1.66-.93,0-1.94-.1-3.02-.29-.51-.1-.97-.19-1.37-.29-.4-.09-.79-.21-1.18-.36-.39-.14-.78-.3-1.18-.48-.4-.18-.87-.41-1.41-.7l1.49-3.02,1.11.57c1.09.58,2.11.97,3.07,1.18.96.21,1.78.31,2.45.31,1.12,0,2.04-.27,2.76-.82.72-.54,1.08-1.23,1.08-2.06,0-.25-.04-.53-.12-.82-.08-.29-.18-.51-.31-.67-.22-.32-.46-.6-.72-.84-.26-.24-.6-.49-1.03-.74-.43-.26-.97-.54-1.61-.84s-1.44-.65-2.4-1.04c-1.06-.45-1.95-.88-2.66-1.29-.72-.42-1.3-.86-1.75-1.32s-.77-.96-.96-1.49-.29-1.13-.29-1.8c0-1.92.73-3.43,2.21-4.51,1.47-1.09,3.49-1.63,6.05-1.63.45,0,.91.02,1.39.05.48.04.95.1,1.39.2.41.06.78.14,1.1.24s.63.2.94.31.63.25.98.43c.35.18.75.39,1.2.65l-1.78,2.93c-.7-.45-1.26-.76-1.68-.94-.41-.18-.89-.34-1.44-.5-.93-.25-1.76-.38-2.5-.38-1.22,0-2.19.25-2.93.74-.73.5-1.1,1.16-1.1,1.99,0,.55.18.99.53,1.34.22.23.44.42.65.58.21.16.5.34.89.55.38.21.87.44,1.46.7.59.26,1.38.59,2.38,1.01,1.15.48,2.11.95,2.86,1.39.75.45,1.36.93,1.82,1.46.46.53.79,1.1.96,1.73s.26,1.37.26,2.23Z"/>
        <path id="hxheight" class="cls-2" d="m215.24,46.64v16.28h-3.64v-15.4c0-.76,0-1.28-.04-1.6-.04-.32-.12-.64-.28-.96-.36-.76-1.08-1.16-2.16-1.16s-2.36.48-3.64,1.36c-1.28.88-2.88,2.4-4.72,4.48v13.28h-3.6v-21.76h3.6v4.56c.36-.4.68-.76.92-1.04s.48-.52.68-.76c.2-.2.4-.4.64-.56.2-.16.44-.36.68-.6.84-.72,1.76-1.24,2.8-1.6,1-.36,2.04-.56,3.04-.56,1.16,0,2.12.16,2.92.56,1.88.8,2.8,2.64,2.8,5.48Z"/>
        <rect id="ixheight" class="cls-2" x="223.26" y="41.18" width="3.6" height="21.74"/>
        <polygon id="fxheight" class="cls-2" points="244.56 41.16 244.56 44.2 239.44 44.2 239.44 62.92 235.84 62.92 235.84 44.2 232.2 44.2 232.2 42.08 235.84 41.16 244.56 41.16"/>
        <path id="txheight" class="cls-2" d="m258.52,60.8c-.64.56-1.2,1-1.68,1.32-.44.32-.88.6-1.24.8-.04,0-.04.04-.08.04-.44.24-.84.4-1.24.48-.4.08-.8.12-1.2.12-.84,0-1.6-.2-2.2-.64-.32-.2-.6-.44-.84-.72-.76-.88-1.16-2.08-1.16-3.52v-14.48h-3.64v-2.12l3.64-.92h9.36v3.04h-5.76v12.4s0,.2.04.4c0,.2.04.44.04.72s.04.52.04.76c.04.24.04.4.04.52.08.64.52.96,1.24.96.44,0,.88-.12,1.36-.36.44-.2,1.04-.6,1.8-1.2l1.48,2.4Z"/>
      </g>
      <g>
        <rect id="hascender" class="cls-2" x="197.16" y="11.92" width="3.6" height="13.24"/>
        <path id="fascender" class="cls-2" d="m250,12.52l-1.48,3c-.76-.24-1.44-.44-1.96-.56-.52-.08-1.08-.16-1.6-.16-3.68,0-5.52,2.56-5.52,7.68v2.68h-3.6v-3.6c0-1.52.2-2.92.64-4.16.44-1.24,1.04-2.32,1.88-3.2.8-.88,1.8-1.56,2.96-2.04s2.44-.72,3.88-.72c.92,0,1.76.08,2.48.24.72.16,1.48.44,2.32.84Z"/>
        <rect id="tascender" class="cls-2" x="248.88" y="18.84" width="3.6" height="6.32"/>
        <path id="itittle" class="cls-2" d="m227.44,17.59c0,.64-.23,1.19-.7,1.66-.46.46-1.02.7-1.66.7s-1.2-.23-1.66-.7c-.46-.46-.7-1.02-.7-1.66s.23-1.19.7-1.66c.46-.46,1.02-.7,1.66-.7s1.19.23,1.66.7c.46.46.7,1.02.7,1.66Z"/>
      </g>
    </g>
    <g>
      <g>
        <path class="cls-2" d="m16.8,43.47c-.8-.91-1.76-1.61-2.88-2.11s-2.37-.75-3.74-.75c-.67,0-1.39.04-2.14.12-.75.08-1.4.2-1.95.36-.45.13-.83.26-1.15.38-.32.13-.77.34-1.34.62v-.9H0v21.1c.45.23.85.39,1.2.5.35.11.69.2,1.01.27.45.09,1.13.2,2.04.31.91.11,1.69.17,2.33.17,1.92,0,3.66-.3,5.23-.89,1.57-.59,2.91-1.43,4.01-2.52,1.1-1.09,1.96-2.4,2.57-3.93.61-1.54.91-3.25.91-5.14,0-1.57-.21-3-.64-4.3-.43-1.3-1.05-2.4-1.85-3.31Zm-2.16,12.14c-.48,1.11-1.33,2.09-2.54,2.95-.51.35-1.05.66-1.63.93-.57.27-1.18.47-1.82.6-.54.13-1.17.19-1.87.19-.64,0-1.2-.05-1.68-.14-.48-.09-.98-.27-1.49-.53v-13.87c.89-.61,1.76-1.05,2.59-1.32s1.76-.41,2.78-.41c2.02,0,3.59.63,4.71,1.89,1.12,1.27,1.68,3.03,1.68,5.3,0,1.82-.24,3.29-.72,4.39Z"/>
        <path class="cls-2" d="m40.9,63.56c-1.5-.1-2.56-.37-3.17-.82-.61-.45-.96-1.18-1.05-2.21-.55.48-.98.84-1.3,1.08-.32.24-.66.46-1.01.65-.67.38-1.41.69-2.23.91-.82.23-1.61.34-2.38.34-1.76,0-3.17-.52-4.22-1.56s-1.58-2.42-1.58-4.15c0-1.6.41-2.91,1.22-3.93.82-1.03,2.02-1.73,3.62-2.11l7.54-1.78v-3.93c0-1.79-1.38-2.69-4.13-2.69-2.21,0-3.31.62-3.31,1.88,0,.19.07.46.19.82l-3.65.77c-.16-.29-.26-.52-.31-.7-.05-.18-.07-.39-.07-.65,0-1.44.72-2.61,2.16-3.5,1.44-.89,3.33-1.34,5.66-1.34,2.21,0,3.95.48,5.21,1.44,1.27.96,1.9,2.29,1.9,3.98v13.34c.09.57.69.96,1.77,1.15l-.86,3.02Zm-4.56-10.56l-8.16,2.11c-.26.51-.43.92-.5,1.22-.08.3-.12.68-.12,1.13,0,.86.27,1.55.79,2.07s1.24.77,2.14.77c.41,0,.81-.04,1.18-.12.37-.08.77-.22,1.2-.43s.93-.49,1.49-.84c.56-.35,1.22-.82,1.99-1.39v-4.51Z"/>
        <path class="cls-2" d="m62.78,57.32c0,1.95-.66,3.48-1.99,4.59-1.33,1.1-3.2,1.66-5.59,1.66-.93,0-1.94-.1-3.02-.29-.51-.1-.97-.19-1.37-.29-.4-.09-.79-.21-1.18-.36-.39-.14-.78-.3-1.18-.48-.4-.18-.87-.41-1.41-.7l1.49-3.02,1.11.57c1.09.58,2.11.97,3.07,1.18.96.21,1.78.31,2.45.31,1.12,0,2.04-.27,2.76-.82.72-.54,1.08-1.23,1.08-2.06,0-.25-.04-.53-.12-.82-.08-.29-.18-.51-.31-.67-.22-.32-.46-.6-.72-.84-.26-.24-.6-.49-1.03-.74-.43-.26-.97-.54-1.61-.84s-1.44-.65-2.4-1.04c-1.06-.45-1.95-.88-2.66-1.29-.72-.42-1.3-.86-1.75-1.32s-.77-.96-.96-1.49-.29-1.13-.29-1.8c0-1.92.73-3.43,2.21-4.51,1.47-1.09,3.49-1.63,6.05-1.63.45,0,.91.02,1.39.05.48.04.95.1,1.39.2.41.06.78.14,1.1.24s.63.2.94.31.63.25.98.43c.35.18.75.39,1.2.65l-1.78,2.93c-.7-.45-1.26-.76-1.68-.94-.41-.18-.89-.34-1.44-.5-.93-.25-1.76-.38-2.5-.38-1.22,0-2.19.25-2.93.74-.73.5-1.1,1.16-1.1,1.99,0,.55.18.99.53,1.34.22.23.44.42.65.58.21.16.5.34.89.55.38.21.87.44,1.46.7.59.26,1.38.59,2.38,1.01,1.15.48,2.11.95,2.86,1.39.75.45,1.36.93,1.82,1.46.46.53.79,1.1.96,1.73s.26,1.37.26,2.23Z"/>
        <path class="cls-2" d="m71.52,51.75c0,2.66.63,4.73,1.9,6.24,1.26,1.5,3,2.26,5.21,2.26.96,0,1.85-.15,2.66-.46s1.82-.87,3-1.7l1.44,2.83c-.8.51-1.53.94-2.18,1.27s-1.29.61-1.89.81c-.61.21-1.22.35-1.82.43-.61.08-1.27.12-1.97.12-1.5,0-2.88-.27-4.13-.82-1.25-.54-2.32-1.32-3.21-2.33s-1.58-2.21-2.06-3.62c-.48-1.41-.72-2.98-.72-4.7s.25-3.3.75-4.7c.5-1.41,1.19-2.62,2.09-3.62.9-1.01,1.98-1.79,3.24-2.33,1.26-.54,2.66-.82,4.2-.82,1.28,0,2.43.21,3.46.65,1.02.43,1.9,1.04,2.64,1.82.73.79,1.3,1.73,1.7,2.86.4,1.12.6,2.35.6,3.7v2.11h-14.88Zm10.95-2.69c-.03-1.7-.45-2.98-1.25-3.86-.8-.88-1.95-1.32-3.45-1.32s-2.81.44-3.82,1.32c-1.01.88-1.72,2.17-2.14,3.86h10.66Z"/>
        <rect id="lxheight" class="cls-2" x="92.12" y="41.21" width="3.6" height="21.72"/>
        <rect class="cls-2" x="103.76" y="41.21" width="3.6" height="21.72"/>
        <path class="cls-2" d="m130.13,62.93v-15.41c0-.74-.02-1.27-.07-1.59-.05-.32-.14-.64-.26-.96-.16-.35-.44-.63-.84-.84-.4-.21-.86-.31-1.37-.31-.54,0-1.11.11-1.7.31-.59.21-1.22.55-1.89,1.01-.67.46-1.39,1.07-2.16,1.8-.77.74-1.63,1.63-2.59,2.69v13.3h-3.6v-21.74h3.6v4.56c.39-.41.7-.77.96-1.05.26-.29.49-.54.7-.75s.42-.4.62-.57.44-.38.7-.6c.83-.7,1.75-1.24,2.76-1.61,1.01-.37,2.02-.55,3.05-.55,3.81,0,5.71,2.02,5.71,6.05v16.27h-3.6Z"/>
        <path class="cls-2" d="m143.52,51.75c0,2.66.63,4.73,1.9,6.24,1.26,1.5,3,2.26,5.21,2.26.96,0,1.85-.15,2.66-.46s1.82-.87,3-1.7l1.44,2.83c-.8.51-1.53.94-2.18,1.27s-1.29.61-1.89.81c-.61.21-1.22.35-1.82.43-.61.08-1.27.12-1.97.12-1.5,0-2.88-.27-4.13-.82-1.25-.54-2.32-1.32-3.21-2.33s-1.58-2.21-2.06-3.62c-.48-1.41-.72-2.98-.72-4.7s.25-3.3.75-4.7c.5-1.41,1.19-2.62,2.09-3.62.9-1.01,1.98-1.79,3.24-2.33,1.26-.54,2.66-.82,4.2-.82,1.28,0,2.43.21,3.46.65,1.02.43,1.9,1.04,2.64,1.82.73.79,1.3,1.73,1.7,2.86.4,1.12.6,2.35.6,3.7v2.11h-14.88Zm10.95-2.69c-.03-1.7-.45-2.98-1.25-3.86-.8-.88-1.95-1.32-3.45-1.32s-2.81.44-3.82,1.32c-1.01.88-1.72,2.17-2.14,3.86h10.66Z"/>
      </g>
      <g>
        <rect id="lascender" class="cls-2" x="92.12" y="11.93" width="3.6" height="13.28"/>
        <rect id="bascender" class="cls-2" y="11.93" width="3.6" height="13.28"/>
        <path id="itittle-2" data-name="itittle" class="cls-2" d="m107.24,15.97c-.44-.48-1-.72-1.64-.72s-1.2.24-1.64.72c-.48.44-.72,1-.72,1.64s.24,1.2.72,1.64c.44.48,1,.72,1.64.72s1.2-.24,1.64-.72c.48-.44.72-1,.72-1.64s-.24-1.2-.72-1.64Z"/>
      </g>
    </g>
  </g>
</svg>